<svg id="svg" version="1.1" xmlns="http://www.w3.org/2000/svg" xmlns:xlink="http://www.w3.org/1999/xlink" width="400" height="400" viewBox="0, 0, 400,400"><g id="svgg"><path id="path0" d="M181.000 70.028 C 162.721 70.374,142.811 71.175,140.800 71.644 C 139.810 71.875,136.660 72.158,133.800 72.273 C 130.940 72.387,127.712 72.733,126.627 73.041 C 125.542 73.348,123.645 73.600,122.411 73.600 C 121.178 73.600,119.185 73.854,117.984 74.164 C 116.783 74.474,114.720 74.856,113.400 75.013 C 112.080 75.170,110.802 75.456,110.560 75.649 C 110.317 75.841,109.237 76.111,108.160 76.247 C 107.082 76.384,105.801 76.744,105.314 77.048 C 104.827 77.352,104.142 77.600,103.792 77.600 C 103.169 77.600,100.740 78.582,98.042 79.924 C 96.338 80.772,93.600 83.172,93.600 83.817 C 93.600 84.084,93.330 84.526,93.000 84.800 C 92.469 85.241,92.400 98.619,92.400 200.799 L 92.400 316.299 93.429 318.141 C 94.598 320.231,97.168 322.155,99.336 322.562 C 100.141 322.713,100.800 322.972,100.800 323.138 C 100.800 325.261,232.450 325.239,239.200 323.115 C 239.970 322.873,242.400 322.548,244.600 322.394 C 246.800 322.239,249.059 321.926,249.620 321.697 C 250.180 321.468,251.890 321.151,253.420 320.992 C 254.949 320.833,256.392 320.550,256.626 320.364 C 256.861 320.177,258.111 319.900,259.404 319.748 C 260.698 319.596,262.216 319.232,262.778 318.938 C 263.340 318.645,264.304 318.404,264.920 318.402 C 265.536 318.401,266.532 318.145,267.134 317.834 C 267.735 317.523,268.941 317.138,269.814 316.978 C 270.686 316.817,271.755 316.442,272.189 316.143 C 272.623 315.844,273.343 315.594,273.789 315.587 C 274.235 315.580,274.949 315.310,275.376 314.987 C 275.804 314.664,276.546 314.400,277.027 314.400 C 277.508 314.400,278.126 314.130,278.400 313.800 C 278.674 313.470,279.081 313.200,279.305 313.200 C 279.529 313.200,280.452 312.855,281.356 312.432 C 282.260 312.010,283.270 311.558,283.600 311.428 C 283.930 311.298,284.740 310.835,285.400 310.400 C 286.060 309.965,287.050 309.385,287.600 309.111 C 290.241 307.797,295.474 303.700,298.990 300.194 C 300.621 298.567,303.600 295.192,303.600 294.970 C 303.600 294.872,304.185 293.930,304.900 292.876 C 307.103 289.629,309.200 285.727,309.200 284.874 C 309.200 284.667,309.470 284.274,309.800 284.000 C 310.130 283.726,310.400 282.997,310.400 282.380 C 310.400 281.762,310.670 280.987,311.000 280.657 C 311.330 280.327,311.601 279.639,311.602 279.129 C 311.604 278.618,311.855 277.721,312.160 277.136 C 312.465 276.551,312.845 275.129,313.003 273.975 C 313.162 272.822,313.541 271.281,313.846 270.552 C 314.151 269.822,314.403 268.005,314.407 266.513 C 314.411 265.021,314.681 262.540,315.007 261.000 C 315.702 257.718,315.830 245.458,315.187 243.766 C 314.960 243.169,314.674 240.683,314.552 238.240 C 314.429 235.798,314.081 232.990,313.779 232.000 C 313.477 231.010,313.109 229.251,312.962 228.091 C 312.815 226.931,312.549 225.892,312.370 225.782 C 312.192 225.672,311.920 224.736,311.765 223.704 C 311.610 222.671,311.239 221.582,310.942 221.284 C 310.644 220.987,310.400 220.434,310.400 220.056 C 310.400 217.727,305.702 210.775,301.170 206.400 C 297.390 202.750,297.221 202.604,295.400 201.402 C 293.294 200.012,292.625 199.620,291.500 199.117 C 290.895 198.846,290.400 198.484,290.400 198.312 C 290.400 198.141,290.172 198.000,289.894 198.000 C 289.616 198.000,288.716 197.640,287.896 197.200 C 287.075 196.760,286.082 196.400,285.690 196.400 C 285.299 196.400,284.623 196.153,284.189 195.851 C 283.755 195.549,282.770 195.176,282.000 195.021 C 279.433 194.506,279.200 194.370,279.200 193.389 C 279.200 192.601,279.500 192.352,280.900 191.979 C 281.835 191.730,282.870 191.362,283.200 191.162 C 283.530 190.962,284.208 190.622,284.708 190.406 C 285.207 190.190,286.557 189.316,287.708 188.464 C 289.501 187.134,290.911 185.778,294.890 181.552 C 295.963 180.413,298.400 176.852,298.400 176.424 C 298.400 176.213,298.625 175.896,298.900 175.720 C 299.434 175.379,301.200 171.988,301.200 171.305 C 301.200 171.081,301.470 170.674,301.800 170.400 C 302.130 170.126,302.400 169.397,302.400 168.780 C 302.400 168.162,302.644 167.413,302.942 167.116 C 303.239 166.818,303.610 165.729,303.765 164.696 C 303.920 163.664,304.192 162.728,304.370 162.618 C 304.549 162.508,304.815 161.469,304.962 160.309 C 305.109 159.149,305.477 157.390,305.779 156.400 C 306.082 155.410,306.438 152.579,306.571 150.109 C 306.704 147.639,306.990 145.152,307.207 144.583 C 307.741 143.176,307.717 129.367,307.178 128.360 C 306.947 127.927,306.611 125.733,306.433 123.486 C 306.116 119.471,305.262 115.269,304.159 112.292 C 303.851 111.462,303.600 110.427,303.600 109.992 C 303.600 109.556,303.423 109.200,303.208 109.200 C 302.992 109.200,302.697 108.705,302.552 108.100 C 302.407 107.495,301.684 105.955,300.944 104.679 C 300.205 103.402,299.600 102.187,299.600 101.979 C 299.600 101.770,299.414 101.600,299.187 101.600 C 298.961 101.600,298.659 101.285,298.517 100.900 C 298.124 99.834,295.695 96.897,292.766 93.946 C 290.555 91.719,288.985 90.414,283.800 86.496 C 282.242 85.318,280.156 84.067,277.000 82.418 C 275.680 81.728,274.330 81.013,274.000 80.829 C 272.672 80.089,269.687 78.800,269.302 78.800 C 269.076 78.800,268.376 78.531,267.746 78.202 C 267.116 77.874,266.127 77.604,265.549 77.602 C 264.971 77.601,264.274 77.330,264.000 77.000 C 263.726 76.670,262.888 76.400,262.138 76.400 C 261.388 76.400,260.192 76.157,259.481 75.859 C 258.769 75.562,257.290 75.186,256.193 75.024 C 255.097 74.862,253.217 74.475,252.016 74.165 C 250.815 73.854,249.063 73.600,248.124 73.600 C 247.185 73.600,245.738 73.345,244.908 73.034 C 244.079 72.723,241.402 72.369,238.960 72.247 C 236.517 72.125,234.086 71.861,233.557 71.660 C 233.028 71.458,229.536 71.178,225.797 71.036 C 222.059 70.895,216.570 70.605,213.600 70.392 C 206.371 69.873,195.528 69.752,181.000 70.028 M206.543 123.000 C 206.873 123.330,207.362 123.600,207.630 123.600 C 209.824 123.600,216.300 131.874,216.396 134.800 C 216.414 135.350,216.686 136.250,217.000 136.800 C 217.448 137.584,217.572 139.705,217.572 146.600 C 217.572 153.495,217.448 155.616,217.000 156.400 C 216.686 156.950,216.422 157.903,216.414 158.517 C 216.377 161.472,211.841 167.509,208.397 169.188 C 207.408 169.670,206.240 170.265,205.800 170.511 C 204.909 171.007,193.029 171.445,191.416 171.040 L 190.400 170.785 190.400 146.859 C 190.400 133.700,190.520 122.813,190.667 122.667 C 191.268 122.065,205.915 122.372,206.543 123.000 M206.690 225.700 C 207.115 226.085,207.719 226.400,208.031 226.400 C 209.998 226.401,216.374 234.678,216.414 237.283 C 216.422 237.787,216.686 238.650,217.000 239.200 C 217.845 240.679,217.834 257.057,216.987 258.176 C 216.664 258.604,216.400 259.466,216.400 260.094 C 216.400 262.649,212.287 268.507,209.355 270.128 C 205.408 272.311,204.788 272.425,197.501 272.309 L 190.600 272.200 190.497 248.826 C 190.415 230.400,190.500 225.379,190.897 225.111 C 191.934 224.408,205.836 224.927,206.690 225.700 " stroke="none" fill="#fbfbfb" fill-rule="evenodd"></path><path id="path1" d="M163.567 69.751 C 163.475 69.834,158.630 70.106,152.800 70.354 C 135.390 71.097,117.002 73.262,108.000 75.628 C 99.472 77.871,93.689 81.210,92.382 84.647 C 92.142 85.277,92.000 128.691,92.000 201.082 L 92.000 316.512 92.890 318.293 C 94.637 321.792,97.597 323.250,105.336 324.422 C 116.806 326.160,226.416 325.448,240.200 323.546 C 241.960 323.303,244.692 322.962,246.271 322.787 C 247.850 322.613,250.190 322.262,251.471 322.007 C 256.899 320.926,261.531 319.910,263.400 319.390 C 269.429 317.714,271.523 317.075,272.660 316.565 C 273.354 316.254,274.096 316.000,274.310 316.000 C 274.809 316.000,277.824 314.717,283.400 312.132 C 286.917 310.502,292.632 306.740,295.412 304.225 C 296.505 303.236,297.526 302.421,297.679 302.413 C 298.487 302.375,306.800 291.809,306.800 290.821 C 306.800 290.626,306.944 290.407,307.119 290.333 C 307.548 290.154,310.800 283.427,310.800 282.719 C 310.800 282.412,310.953 281.989,311.140 281.780 C 311.923 280.904,314.793 269.924,314.808 267.745 C 314.812 267.115,315.076 265.160,315.394 263.400 C 316.056 259.733,316.176 246.394,315.590 241.600 C 315.388 239.950,315.047 237.086,314.832 235.237 C 313.864 226.901,309.785 214.928,306.946 212.089 C 306.646 211.789,306.400 211.388,306.400 211.200 C 306.400 209.269,294.562 199.733,289.000 197.183 C 284.183 194.974,283.837 194.839,282.300 194.572 C 280.183 194.204,280.105 192.567,282.186 192.176 C 282.948 192.033,283.780 191.665,284.035 191.358 C 284.290 191.051,284.726 190.800,285.005 190.800 C 288.433 190.800,298.604 179.036,301.951 171.200 C 302.468 169.990,303.024 168.730,303.187 168.400 C 303.536 167.689,305.298 161.462,305.970 158.563 C 306.229 157.443,306.617 155.013,306.832 153.163 C 307.047 151.314,307.388 148.450,307.590 146.800 C 308.081 142.786,308.082 129.648,307.591 126.400 C 307.375 124.970,307.006 122.476,306.772 120.858 C 305.234 110.240,301.036 101.608,293.857 94.301 C 287.927 88.265,281.869 84.059,272.400 79.404 C 261.049 73.823,230.290 69.436,204.200 69.678 L 195.000 69.763 203.600 70.010 C 217.348 70.404,232.099 71.209,233.400 71.636 C 234.060 71.852,236.580 72.128,239.000 72.249 C 241.420 72.370,244.079 72.723,244.908 73.034 C 245.738 73.345,247.185 73.600,248.124 73.600 C 249.063 73.600,250.815 73.854,252.016 74.165 C 253.217 74.475,255.097 74.862,256.193 75.024 C 257.290 75.186,258.769 75.562,259.481 75.859 C 260.192 76.157,261.388 76.400,262.138 76.400 C 262.888 76.400,263.726 76.670,264.000 77.000 C 264.274 77.330,264.971 77.601,265.549 77.602 C 266.127 77.604,267.116 77.874,267.746 78.202 C 268.376 78.531,269.076 78.800,269.302 78.800 C 269.687 78.800,272.672 80.089,274.000 80.829 C 274.330 81.013,275.680 81.728,277.000 82.418 C 280.156 84.067,282.242 85.318,283.800 86.496 C 288.985 90.414,290.555 91.719,292.766 93.946 C 295.695 96.897,298.124 99.834,298.517 100.900 C 298.659 101.285,298.961 101.600,299.187 101.600 C 299.414 101.600,299.600 101.770,299.600 101.979 C 299.600 102.187,300.205 103.402,300.944 104.679 C 301.684 105.955,302.407 107.495,302.552 108.100 C 302.697 108.705,302.992 109.200,303.208 109.200 C 303.423 109.200,303.600 109.556,303.600 109.992 C 303.600 110.427,303.851 111.462,304.159 112.292 C 305.262 115.269,306.116 119.471,306.433 123.486 C 306.611 125.733,306.947 127.927,307.178 128.360 C 307.717 129.367,307.741 143.176,307.207 144.583 C 306.990 145.152,306.704 147.639,306.571 150.109 C 306.438 152.579,306.082 155.410,305.779 156.400 C 305.477 157.390,305.109 159.149,304.962 160.309 C 304.815 161.469,304.549 162.508,304.370 162.618 C 304.192 162.728,303.920 163.664,303.765 164.696 C 303.610 165.729,303.239 166.818,302.942 167.116 C 302.644 167.413,302.400 168.162,302.400 168.780 C 302.400 169.397,302.130 170.126,301.800 170.400 C 301.470 170.674,301.200 171.081,301.200 171.305 C 301.200 171.988,299.434 175.379,298.900 175.720 C 298.625 175.896,298.400 176.213,298.400 176.424 C 298.400 176.852,295.963 180.413,294.890 181.552 C 290.911 185.778,289.501 187.134,287.708 188.464 C 286.557 189.316,285.207 190.190,284.708 190.406 C 284.208 190.622,283.530 190.962,283.200 191.162 C 282.870 191.362,281.835 191.730,280.900 191.979 C 279.500 192.352,279.200 192.601,279.200 193.389 C 279.200 194.370,279.433 194.506,282.000 195.021 C 282.770 195.176,283.755 195.549,284.189 195.851 C 284.623 196.153,285.299 196.400,285.690 196.400 C 286.082 196.400,287.075 196.760,287.896 197.200 C 288.716 197.640,289.616 198.000,289.894 198.000 C 290.172 198.000,290.400 198.141,290.400 198.312 C 290.400 198.484,290.895 198.846,291.500 199.117 C 297.601 201.845,305.282 209.554,308.993 216.671 C 309.767 218.154,310.400 219.678,310.400 220.056 C 310.400 220.434,310.644 220.987,310.942 221.284 C 311.239 221.582,311.610 222.671,311.765 223.704 C 311.920 224.736,312.192 225.672,312.370 225.782 C 312.549 225.892,312.815 226.931,312.962 228.091 C 313.109 229.251,313.477 231.010,313.779 232.000 C 314.081 232.990,314.429 235.798,314.552 238.240 C 314.674 240.683,314.960 243.169,315.187 243.766 C 315.830 245.458,315.702 257.718,315.007 261.000 C 314.681 262.540,314.411 265.021,314.407 266.513 C 314.403 268.005,314.151 269.822,313.846 270.552 C 313.541 271.281,313.162 272.822,313.003 273.975 C 312.845 275.129,312.465 276.551,312.160 277.136 C 311.855 277.721,311.604 278.618,311.602 279.129 C 311.601 279.639,311.330 280.327,311.000 280.657 C 310.670 280.987,310.400 281.762,310.400 282.380 C 310.400 282.997,310.130 283.726,309.800 284.000 C 309.470 284.274,309.200 284.667,309.200 284.874 C 309.200 285.727,307.103 289.629,304.900 292.876 C 304.185 293.930,303.600 294.872,303.600 294.970 C 303.600 295.192,300.621 298.567,298.990 300.194 C 295.474 303.700,290.241 307.797,287.600 309.111 C 287.050 309.385,286.060 309.965,285.400 310.400 C 284.740 310.835,283.930 311.298,283.600 311.428 C 283.270 311.558,282.260 312.010,281.356 312.432 C 280.452 312.855,279.529 313.200,279.305 313.200 C 279.081 313.200,278.674 313.470,278.400 313.800 C 278.126 314.130,277.508 314.400,277.027 314.400 C 276.546 314.400,275.804 314.664,275.376 314.987 C 274.949 315.310,274.235 315.580,273.789 315.587 C 273.343 315.594,272.623 315.844,272.189 316.143 C 271.755 316.442,270.686 316.817,269.814 316.978 C 268.941 317.138,267.735 317.523,267.134 317.834 C 266.532 318.145,265.536 318.401,264.920 318.402 C 264.304 318.404,263.340 318.645,262.778 318.938 C 262.216 319.232,260.698 319.596,259.404 319.748 C 258.111 319.900,256.861 320.177,256.626 320.364 C 256.392 320.550,254.949 320.833,253.420 320.992 C 251.890 321.151,250.180 321.468,249.620 321.697 C 249.059 321.926,246.800 322.239,244.600 322.394 C 242.400 322.548,239.970 322.873,239.200 323.115 C 232.450 325.239,100.800 325.261,100.800 323.138 C 100.800 322.972,100.141 322.713,99.336 322.562 C 97.168 322.155,94.598 320.231,93.429 318.141 L 92.400 316.299 92.400 200.799 C 92.400 98.619,92.469 85.241,93.000 84.800 C 93.330 84.526,93.600 84.084,93.600 83.817 C 93.600 83.172,96.338 80.772,98.042 79.924 C 100.740 78.582,103.169 77.600,103.792 77.600 C 104.142 77.600,104.827 77.352,105.314 77.048 C 105.801 76.744,107.082 76.384,108.160 76.247 C 109.237 76.111,110.317 75.841,110.560 75.649 C 110.802 75.456,112.080 75.170,113.400 75.013 C 114.720 74.856,116.783 74.474,117.984 74.164 C 119.185 73.854,121.178 73.600,122.411 73.600 C 123.645 73.600,125.542 73.348,126.627 73.041 C 127.712 72.733,130.940 72.387,133.800 72.273 C 136.660 72.158,139.810 71.875,140.800 71.644 C 142.776 71.183,162.221 70.393,181.000 70.011 L 193.000 69.767 178.367 69.683 C 170.318 69.638,163.658 69.668,163.567 69.751 M190.667 122.667 C 190.520 122.813,190.400 133.700,190.400 146.859 L 190.400 170.785 191.416 171.040 C 193.029 171.445,204.909 171.007,205.800 170.511 C 206.240 170.265,207.408 169.670,208.397 169.188 C 211.841 167.509,216.377 161.472,216.414 158.517 C 216.422 157.903,216.686 156.950,217.000 156.400 C 217.384 155.728,217.557 154.286,217.527 152.000 L 217.483 148.600 217.183 151.400 C 216.841 154.595,215.890 159.076,215.310 160.224 C 215.094 160.651,214.577 161.705,214.160 162.567 C 211.302 168.476,205.970 170.914,196.344 170.712 L 191.000 170.600 190.897 146.700 L 190.794 122.800 197.783 122.800 C 203.523 122.800,205.043 122.922,206.286 123.485 C 212.495 126.292,216.235 132.573,217.192 141.800 L 217.483 144.600 217.527 141.200 C 217.557 138.914,217.384 137.472,217.000 136.800 C 216.686 136.250,216.414 135.350,216.396 134.800 C 216.300 131.874,209.824 123.600,207.630 123.600 C 207.362 123.600,206.873 123.330,206.543 123.000 C 205.915 122.372,191.268 122.065,190.667 122.667 M190.897 225.111 C 190.500 225.379,190.415 230.400,190.497 248.826 L 190.600 272.200 197.501 272.309 C 204.788 272.425,205.408 272.311,209.355 270.128 C 212.287 268.507,216.400 262.649,216.400 260.094 C 216.400 259.466,216.664 258.604,216.987 258.176 C 217.412 257.614,217.561 256.406,217.527 253.800 L 217.479 250.200 217.170 253.200 C 216.827 256.516,215.960 260.564,215.327 261.800 C 215.102 262.240,214.590 263.281,214.189 264.113 C 211.526 269.641,206.345 272.005,196.897 272.002 L 190.794 272.000 190.897 248.700 L 191.000 225.400 197.800 225.418 L 204.600 225.436 207.322 226.784 C 213.043 229.616,216.633 236.145,217.338 245.000 C 217.408 245.880,217.489 245.160,217.519 243.400 C 217.554 241.272,217.380 239.865,217.000 239.200 C 216.686 238.650,216.422 237.787,216.414 237.283 C 216.374 234.678,209.998 226.401,208.031 226.400 C 207.719 226.400,207.115 226.085,206.690 225.700 C 205.836 224.927,191.934 224.408,190.897 225.111 " stroke="none" fill="#a4e8ee" fill-rule="evenodd"></path><path id="path2" d="M47.200 0.400 C 47.200 0.626,46.067 0.800,44.600 0.800 C 42.556 0.800,42.000 0.928,42.000 1.400 C 42.000 1.853,41.511 2.000,40.000 2.000 C 38.489 2.000,38.000 2.147,38.000 2.600 C 38.000 3.016,37.581 3.200,36.633 3.200 C 34.871 3.200,34.000 3.545,34.000 4.243 C 34.000 4.597,33.557 4.800,32.787 4.800 C 32.079 4.800,31.479 5.049,31.345 5.400 C 31.218 5.730,30.693 6.000,30.177 6.000 C 29.662 6.000,29.096 6.239,28.920 6.530 C 28.744 6.822,28.285 7.176,27.900 7.318 C 27.515 7.459,27.200 7.851,27.200 8.187 C 27.200 8.601,26.811 8.800,26.000 8.800 C 25.200 8.800,24.800 9.000,24.800 9.400 C 24.800 9.733,24.444 10.000,24.000 10.000 C 23.556 10.000,23.200 10.267,23.200 10.600 C 23.200 10.930,22.930 11.200,22.600 11.200 C 22.267 11.200,22.000 11.556,22.000 12.000 C 22.000 12.624,21.733 12.800,20.787 12.800 C 20.079 12.800,19.479 13.049,19.345 13.400 C 19.218 13.730,18.864 14.000,18.557 14.000 C 18.251 14.000,18.000 14.270,18.000 14.600 C 18.000 14.930,17.730 15.200,17.400 15.200 C 17.067 15.200,16.800 15.556,16.800 16.000 C 16.800 16.533,16.533 16.800,16.000 16.800 C 15.556 16.800,15.200 17.067,15.200 17.400 C 15.200 17.730,14.930 18.000,14.600 18.000 C 14.270 18.000,14.000 18.251,14.000 18.557 C 14.000 18.864,13.730 19.218,13.400 19.345 C 13.049 19.479,12.800 20.079,12.800 20.787 C 12.800 21.733,12.624 22.000,12.000 22.000 C 11.556 22.000,11.200 22.267,11.200 22.600 C 11.200 22.930,10.930 23.200,10.600 23.200 C 10.267 23.200,10.000 23.556,10.000 24.000 C 10.000 24.444,9.733 24.800,9.400 24.800 C 9.000 24.800,8.800 25.200,8.800 26.000 C 8.800 26.831,8.604 27.200,8.163 27.200 C 7.812 27.200,7.434 27.548,7.323 27.972 C 7.212 28.397,6.869 28.841,6.561 28.960 C 6.252 29.078,6.000 29.611,6.000 30.145 C 6.000 30.678,5.730 31.218,5.400 31.345 C 5.049 31.479,4.800 32.079,4.800 32.787 C 4.800 33.557,4.597 34.000,4.243 34.000 C 3.545 34.000,3.200 34.871,3.200 36.633 C 3.200 37.581,3.016 38.000,2.600 38.000 C 2.147 38.000,2.000 38.489,2.000 40.000 C 2.000 41.511,1.853 42.000,1.400 42.000 C 0.928 42.000,0.800 42.556,0.800 44.600 C 0.800 46.067,0.626 47.200,0.400 47.200 C 0.134 47.200,0.000 98.400,0.000 200.000 C 0.000 301.600,0.134 352.800,0.400 352.800 C 0.626 352.800,0.800 353.933,0.800 355.400 C 0.800 357.444,0.928 358.000,1.400 358.000 C 1.853 358.000,2.000 358.489,2.000 360.000 C 2.000 361.511,2.147 362.000,2.600 362.000 C 3.016 362.000,3.200 362.419,3.200 363.367 C 3.200 365.129,3.545 366.000,4.243 366.000 C 4.597 366.000,4.800 366.443,4.800 367.213 C 4.800 367.921,5.049 368.521,5.400 368.655 C 5.730 368.782,6.000 369.322,6.000 369.855 C 6.000 370.389,6.270 370.929,6.600 371.055 C 6.930 371.182,7.200 371.553,7.200 371.880 C 7.200 372.207,7.560 372.569,8.000 372.684 C 8.567 372.832,8.800 373.230,8.800 374.047 C 8.800 374.805,9.005 375.200,9.400 375.200 C 9.733 375.200,10.000 375.556,10.000 376.000 C 10.000 376.444,10.267 376.800,10.600 376.800 C 10.930 376.800,11.200 377.070,11.200 377.400 C 11.200 377.733,11.556 378.000,12.000 378.000 C 12.624 378.000,12.800 378.267,12.800 379.213 C 12.800 379.921,13.049 380.521,13.400 380.655 C 13.730 380.782,14.000 381.136,14.000 381.443 C 14.000 381.749,14.270 382.000,14.600 382.000 C 14.930 382.000,15.200 382.270,15.200 382.600 C 15.200 382.933,15.556 383.200,16.000 383.200 C 16.533 383.200,16.800 383.467,16.800 384.000 C 16.800 384.444,17.067 384.800,17.400 384.800 C 17.730 384.800,18.000 385.070,18.000 385.400 C 18.000 385.730,18.251 386.000,18.557 386.000 C 18.864 386.000,19.218 386.270,19.345 386.600 C 19.479 386.951,20.079 387.200,20.787 387.200 C 21.733 387.200,22.000 387.376,22.000 388.000 C 22.000 388.444,22.267 388.800,22.600 388.800 C 22.930 388.800,23.200 389.070,23.200 389.400 C 23.200 389.733,23.556 390.000,24.000 390.000 C 24.444 390.000,24.800 390.267,24.800 390.600 C 24.800 391.000,25.200 391.200,26.000 391.200 C 26.811 391.200,27.200 391.399,27.200 391.813 C 27.200 392.149,27.515 392.541,27.900 392.682 C 28.285 392.824,28.744 393.178,28.920 393.470 C 29.096 393.761,29.662 394.000,30.177 394.000 C 30.693 394.000,31.218 394.270,31.345 394.600 C 31.479 394.951,32.079 395.200,32.787 395.200 C 33.557 395.200,34.000 395.403,34.000 395.757 C 34.000 396.455,34.871 396.800,36.633 396.800 C 37.581 396.800,38.000 396.984,38.000 397.400 C 38.000 397.853,38.489 398.000,40.000 398.000 C 41.511 398.000,42.000 398.147,42.000 398.600 C 42.000 399.072,42.556 399.200,44.600 399.200 C 46.067 399.200,47.200 399.374,47.200 399.600 C 47.200 399.866,98.400 400.000,200.000 400.000 C 301.600 400.000,352.800 399.866,352.800 399.600 C 352.800 399.374,353.933 399.200,355.400 399.200 C 357.444 399.200,358.000 399.072,358.000 398.600 C 358.000 398.147,358.489 398.000,360.000 398.000 C 361.511 398.000,362.000 397.853,362.000 397.400 C 362.000 396.984,362.419 396.800,363.367 396.800 C 365.129 396.800,366.000 396.455,366.000 395.757 C 366.000 395.403,366.443 395.200,367.213 395.200 C 367.921 395.200,368.521 394.951,368.655 394.600 C 368.782 394.270,369.307 394.000,369.823 394.000 C 370.338 394.000,370.904 393.761,371.080 393.470 C 371.256 393.178,371.715 392.824,372.100 392.682 C 372.485 392.541,372.800 392.149,372.800 391.813 C 372.800 391.399,373.189 391.200,374.000 391.200 C 374.800 391.200,375.200 391.000,375.200 390.600 C 375.200 390.267,375.556 390.000,376.000 390.000 C 376.444 390.000,376.800 389.733,376.800 389.400 C 376.800 389.070,377.070 388.800,377.400 388.800 C 377.733 388.800,378.000 388.444,378.000 388.000 C 378.000 387.376,378.267 387.200,379.213 387.200 C 379.921 387.200,380.521 386.951,380.655 386.600 C 380.782 386.270,381.136 386.000,381.443 386.000 C 381.749 386.000,382.000 385.730,382.000 385.400 C 382.000 385.070,382.270 384.800,382.600 384.800 C 382.933 384.800,383.200 384.444,383.200 384.000 C 383.200 383.467,383.467 383.200,384.000 383.200 C 384.444 383.200,384.800 382.933,384.800 382.600 C 384.800 382.270,385.070 382.000,385.400 382.000 C 385.730 382.000,386.000 381.749,386.000 381.443 C 386.000 381.136,386.270 380.782,386.600 380.655 C 386.951 380.521,387.200 379.921,387.200 379.213 C 387.200 378.267,387.376 378.000,388.000 378.000 C 388.444 378.000,388.800 377.733,388.800 377.400 C 388.800 377.070,389.070 376.800,389.400 376.800 C 389.733 376.800,390.000 376.444,390.000 376.000 C 390.000 375.556,390.267 375.200,390.600 375.200 C 391.000 375.200,391.200 374.800,391.200 374.000 C 391.200 373.189,391.399 372.800,391.813 372.800 C 392.149 372.800,392.541 372.485,392.682 372.100 C 392.824 371.715,393.178 371.256,393.470 371.080 C 393.761 370.904,394.000 370.338,394.000 369.823 C 394.000 369.307,394.270 368.782,394.600 368.655 C 394.951 368.521,395.200 367.921,395.200 367.213 C 395.200 366.443,395.403 366.000,395.757 366.000 C 396.455 366.000,396.800 365.129,396.800 363.367 C 396.800 362.419,396.984 362.000,397.400 362.000 C 397.853 362.000,398.000 361.511,398.000 360.000 C 398.000 358.489,398.147 358.000,398.600 358.000 C 399.072 358.000,399.200 357.444,399.200 355.400 C 399.200 353.933,399.374 352.800,399.600 352.800 C 399.866 352.800,400.000 301.600,400.000 200.000 C 400.000 98.400,399.866 47.200,399.600 47.200 C 399.374 47.200,399.200 46.067,399.200 44.600 C 399.200 42.556,399.072 42.000,398.600 42.000 C 398.147 42.000,398.000 41.511,398.000 40.000 C 398.000 38.489,397.853 38.000,397.400 38.000 C 396.984 38.000,396.800 37.581,396.800 36.633 C 396.800 34.871,396.455 34.000,395.757 34.000 C 395.403 34.000,395.200 33.557,395.200 32.787 C 395.200 32.079,394.951 31.479,394.600 31.345 C 394.270 31.218,394.000 30.693,394.000 30.177 C 394.000 29.662,393.761 29.096,393.470 28.920 C 393.178 28.744,392.824 28.285,392.682 27.900 C 392.541 27.515,392.149 27.200,391.813 27.200 C 391.399 27.200,391.200 26.811,391.200 26.000 C 391.200 25.200,391.000 24.800,390.600 24.800 C 390.267 24.800,390.000 24.444,390.000 24.000 C 390.000 23.556,389.733 23.200,389.400 23.200 C 389.070 23.200,388.800 22.930,388.800 22.600 C 388.800 22.267,388.444 22.000,388.000 22.000 C 387.376 22.000,387.200 21.733,387.200 20.787 C 387.200 20.079,386.951 19.479,386.600 19.345 C 386.270 19.218,386.000 18.864,386.000 18.557 C 386.000 18.251,385.730 18.000,385.400 18.000 C 385.070 18.000,384.800 17.730,384.800 17.400 C 384.800 17.067,384.444 16.800,384.000 16.800 C 383.467 16.800,383.200 16.533,383.200 16.000 C 383.200 15.556,382.933 15.200,382.600 15.200 C 382.270 15.200,382.000 14.930,382.000 14.600 C 382.000 14.270,381.749 14.000,381.443 14.000 C 381.136 14.000,380.782 13.730,380.655 13.400 C 380.521 13.049,379.921 12.800,379.213 12.800 C 378.267 12.800,378.000 12.624,378.000 12.000 C 378.000 11.556,377.733 11.200,377.400 11.200 C 377.070 11.200,376.800 10.930,376.800 10.600 C 376.800 10.267,376.444 10.000,376.000 10.000 C 375.556 10.000,375.200 9.733,375.200 9.400 C 375.200 9.005,374.805 8.800,374.047 8.800 C 373.230 8.800,372.832 8.567,372.684 8.000 C 372.569 7.560,372.207 7.200,371.880 7.200 C 371.553 7.200,371.182 6.930,371.055 6.600 C 370.929 6.270,370.389 6.000,369.855 6.000 C 369.322 6.000,368.782 5.730,368.655 5.400 C 368.521 5.049,367.921 4.800,367.213 4.800 C 366.443 4.800,366.000 4.597,366.000 4.243 C 366.000 3.545,365.129 3.200,363.367 3.200 C 362.419 3.200,362.000 3.016,362.000 2.600 C 362.000 2.147,361.511 2.000,360.000 2.000 C 358.489 2.000,358.000 1.853,358.000 1.400 C 358.000 0.928,357.444 0.800,355.400 0.800 C 353.933 0.800,352.800 0.626,352.800 0.400 C 352.800 0.134,301.600 0.000,200.000 0.000 C 98.400 0.000,47.200 0.134,47.200 0.400 M225.200 69.246 C 226.410 69.459,230.407 69.852,234.083 70.120 C 238.270 70.424,240.952 70.792,241.263 71.103 C 241.581 71.421,242.991 71.601,245.180 71.602 C 247.431 71.604,248.991 71.809,249.746 72.202 C 250.376 72.531,251.816 72.801,252.946 72.802 C 254.076 72.804,255.489 73.060,256.087 73.372 C 256.685 73.684,258.179 74.065,259.407 74.218 C 260.635 74.372,261.888 74.745,262.191 75.049 C 262.495 75.352,263.463 75.600,264.343 75.600 C 265.232 75.600,266.210 75.867,266.543 76.200 C 266.873 76.530,267.674 76.800,268.322 76.800 C 268.971 76.800,269.722 77.065,269.991 77.389 C 270.260 77.714,271.107 78.096,271.872 78.240 C 272.638 78.384,273.359 78.748,273.475 79.051 C 273.591 79.353,274.212 79.600,274.855 79.600 C 275.526 79.600,276.123 79.856,276.255 80.200 C 276.382 80.530,276.816 80.800,277.219 80.800 C 277.623 80.800,278.075 80.998,278.225 81.241 C 278.375 81.483,279.061 81.946,279.749 82.268 C 282.166 83.402,283.200 84.047,283.200 84.422 C 283.200 84.630,283.364 84.800,283.564 84.800 C 284.117 84.800,287.200 86.896,287.200 87.271 C 287.200 87.452,287.451 87.600,287.757 87.600 C 288.064 87.600,288.418 87.870,288.545 88.200 C 288.671 88.530,288.961 88.800,289.187 88.800 C 289.414 88.800,289.927 89.115,290.327 89.500 C 290.728 89.885,291.853 90.921,292.827 91.803 C 293.802 92.684,295.407 94.394,296.394 95.603 C 297.381 96.811,298.416 97.944,298.694 98.120 C 298.972 98.296,299.200 98.682,299.200 98.977 C 299.200 99.273,299.470 99.618,299.800 99.745 C 300.130 99.871,300.400 100.223,300.400 100.526 C 300.400 100.829,300.760 101.493,301.200 102.000 C 301.640 102.507,302.000 103.143,302.000 103.412 C 302.000 103.682,302.270 104.126,302.600 104.400 C 302.930 104.674,303.200 105.214,303.200 105.600 C 303.200 105.986,303.470 106.526,303.800 106.800 C 304.130 107.074,304.400 107.637,304.400 108.050 C 304.400 108.464,304.760 109.475,305.200 110.296 C 305.640 111.116,306.000 112.265,306.000 112.848 C 306.000 113.431,306.269 114.424,306.598 115.054 C 306.926 115.684,307.202 117.190,307.210 118.400 C 307.219 119.693,307.467 120.920,307.813 121.376 C 308.694 122.541,308.680 151.254,307.798 152.946 C 307.458 153.597,307.199 155.151,307.198 156.546 C 307.196 157.896,306.956 159.459,306.663 160.020 C 306.370 160.581,306.019 161.981,305.883 163.131 C 305.747 164.281,305.357 165.500,305.018 165.840 C 304.678 166.179,304.400 166.971,304.400 167.600 C 304.400 168.229,304.130 169.013,303.800 169.343 C 303.470 169.673,303.200 170.303,303.200 170.743 C 303.200 171.183,302.930 171.813,302.600 172.143 C 302.270 172.473,302.000 173.026,302.000 173.371 C 302.000 173.717,301.640 174.360,301.200 174.800 C 300.760 175.240,300.400 175.966,300.400 176.413 C 300.400 176.859,300.130 177.329,299.800 177.455 C 299.470 177.582,299.200 177.927,299.200 178.223 C 299.200 178.518,298.971 178.904,298.692 179.080 C 298.412 179.256,297.966 179.895,297.700 180.500 C 297.435 181.105,297.033 181.600,296.809 181.600 C 296.584 181.600,296.400 181.790,296.400 182.023 C 296.400 182.617,289.615 189.296,288.400 189.899 C 287.030 190.578,285.847 191.337,285.566 191.717 C 285.437 191.891,284.807 192.174,284.166 192.346 C 282.313 192.841,282.428 193.931,284.365 194.241 C 285.256 194.383,286.190 194.747,286.441 195.050 C 286.693 195.352,287.313 195.600,287.820 195.600 C 288.328 195.600,289.013 195.870,289.343 196.200 C 289.673 196.530,290.201 196.800,290.517 196.800 C 290.834 196.800,291.523 197.115,292.051 197.500 C 293.466 198.533,294.490 199.154,295.500 199.591 C 295.995 199.805,296.400 200.165,296.400 200.390 C 296.400 200.616,296.661 200.800,296.980 200.800 C 297.299 200.800,297.704 201.029,297.880 201.310 C 298.056 201.590,298.650 202.113,299.200 202.471 C 301.553 204.006,307.200 210.126,307.200 211.141 C 307.200 211.394,307.370 211.600,307.578 211.600 C 307.930 211.600,308.387 212.297,309.676 214.800 C 309.959 215.350,310.418 216.038,310.695 216.329 C 310.973 216.619,311.200 217.272,311.200 217.780 C 311.200 218.287,311.470 218.926,311.800 219.200 C 312.130 219.474,312.400 220.247,312.400 220.917 C 312.400 221.588,312.685 222.452,313.034 222.837 C 313.383 223.223,313.759 224.317,313.871 225.269 C 313.983 226.221,314.327 227.567,314.637 228.260 C 314.947 228.954,315.200 230.598,315.200 231.915 C 315.200 233.260,315.462 234.810,315.798 235.454 C 316.686 237.157,316.686 266.043,315.798 267.746 C 315.469 268.376,315.199 269.816,315.198 270.946 C 315.196 272.076,314.926 273.516,314.598 274.146 C 314.269 274.776,314.000 275.769,314.000 276.352 C 314.000 276.935,313.640 278.084,313.200 278.904 C 312.760 279.725,312.400 280.835,312.400 281.370 C 312.400 281.905,312.130 282.613,311.800 282.943 C 311.470 283.273,311.200 283.903,311.200 284.343 C 311.200 284.783,310.930 285.413,310.600 285.743 C 310.270 286.073,310.000 286.519,310.000 286.735 C 310.000 287.397,307.908 291.200,307.543 291.200 C 307.354 291.200,307.200 291.477,307.200 291.816 C 307.200 292.398,305.997 294.334,304.900 295.518 C 304.625 295.814,304.400 296.180,304.400 296.330 C 304.400 296.480,303.500 297.556,302.400 298.722 C 301.300 299.887,300.400 301.011,300.400 301.220 C 300.400 301.429,300.264 301.600,300.099 301.600 C 299.933 301.600,298.882 302.455,297.762 303.500 C 295.770 305.360,293.422 307.200,293.041 307.200 C 292.936 307.200,292.257 307.741,291.533 308.402 C 290.809 309.063,289.862 309.717,289.427 309.855 C 288.993 309.993,288.391 310.352,288.090 310.653 C 287.789 310.954,287.196 311.200,286.771 311.200 C 286.347 311.200,286.000 311.354,286.000 311.543 C 286.000 311.946,282.164 314.000,281.412 314.000 C 281.129 314.000,280.674 314.270,280.400 314.600 C 280.126 314.930,279.496 315.200,279.000 315.200 C 278.504 315.200,277.874 315.470,277.600 315.800 C 277.326 316.130,276.673 316.400,276.150 316.400 C 275.626 316.400,274.525 316.760,273.704 317.200 C 272.884 317.640,271.849 318.006,271.406 318.013 C 270.963 318.020,270.251 318.290,269.824 318.613 C 269.396 318.936,268.384 319.200,267.573 319.200 C 266.750 319.200,265.878 319.465,265.600 319.800 C 265.288 320.176,264.407 320.400,263.240 320.400 C 262.216 320.400,260.990 320.671,260.517 321.003 C 260.043 321.335,258.518 321.720,257.128 321.858 C 255.737 321.997,254.365 322.295,254.078 322.522 C 253.791 322.749,252.081 323.009,250.278 323.100 C 248.475 323.190,246.433 323.520,245.740 323.832 C 244.924 324.200,243.079 324.400,240.512 324.400 C 237.828 324.400,235.842 324.626,234.373 325.100 C 232.341 325.755,228.058 325.800,168.200 325.800 C 108.002 325.800,104.124 325.758,102.920 325.100 C 102.216 324.715,100.933 324.400,100.069 324.400 C 99.160 324.400,98.288 324.147,98.000 323.800 C 97.726 323.470,97.158 323.200,96.738 323.200 C 96.319 323.200,95.871 322.930,95.745 322.600 C 95.618 322.270,95.320 322.000,95.083 322.000 C 94.479 322.000,92.800 320.362,92.800 319.773 C 92.800 319.505,92.530 319.182,92.200 319.055 C 91.144 318.650,91.311 84.246,92.369 82.642 C 93.332 81.181,95.154 79.600,95.875 79.600 C 96.177 79.600,96.524 79.341,96.646 79.024 C 96.767 78.708,97.379 78.336,98.006 78.199 C 98.632 78.061,99.359 77.690,99.621 77.374 C 99.883 77.058,100.571 76.794,101.149 76.787 C 101.727 76.780,102.549 76.510,102.976 76.187 C 103.404 75.864,104.361 75.600,105.105 75.600 C 105.849 75.600,106.703 75.355,107.003 75.055 C 107.302 74.755,108.635 74.386,109.964 74.236 C 111.294 74.085,112.880 73.702,113.490 73.384 C 114.104 73.063,115.695 72.804,117.051 72.802 C 118.399 72.801,120.149 72.530,120.938 72.200 C 121.900 71.798,123.738 71.600,126.507 71.600 C 129.232 71.600,130.807 71.433,131.129 71.111 C 131.449 70.791,134.627 70.442,140.309 70.102 C 145.089 69.817,150.170 69.434,151.600 69.252 C 155.337 68.777,222.505 68.771,225.200 69.246 M191.200 146.600 L 191.200 170.000 196.351 170.000 C 200.025 170.000,201.914 169.828,202.938 169.400 C 203.728 169.070,204.898 168.800,205.538 168.800 C 206.178 168.800,206.926 168.530,207.200 168.200 C 207.474 167.870,207.920 167.600,208.192 167.600 C 208.768 167.600,212.800 163.667,212.800 163.106 C 212.800 162.897,213.160 162.269,213.600 161.709 C 214.040 161.150,214.400 160.288,214.400 159.795 C 214.400 159.302,214.670 158.674,215.000 158.400 C 215.410 158.060,215.606 157.124,215.618 155.451 C 215.627 154.103,215.895 152.280,216.212 151.400 C 216.532 150.510,216.788 148.379,216.788 146.600 C 216.788 144.821,216.532 142.690,216.212 141.800 C 215.895 140.920,215.627 139.094,215.618 137.743 C 215.605 135.939,215.440 135.224,215.000 135.055 C 214.670 134.929,214.400 134.410,214.400 133.903 C 214.400 131.289,207.982 124.400,205.547 124.400 C 204.948 124.400,204.187 124.130,203.857 123.800 C 203.377 123.320,202.054 123.200,197.229 123.200 L 191.200 123.200 191.200 146.600 M191.200 248.800 L 191.200 271.600 196.500 271.587 C 200.525 271.578,201.987 271.433,202.576 270.987 C 203.004 270.664,203.904 270.397,204.576 270.394 C 205.249 270.391,206.250 270.128,206.800 269.810 C 207.350 269.492,208.070 269.098,208.400 268.936 C 209.920 268.187,212.395 265.642,212.908 264.300 C 213.055 263.915,213.341 263.600,213.543 263.600 C 213.745 263.600,214.036 262.925,214.189 262.100 C 214.342 261.275,214.699 260.330,214.982 260.000 C 215.264 259.670,215.594 258.021,215.714 256.336 C 215.834 254.652,216.128 252.908,216.366 252.463 C 216.932 251.405,216.927 245.784,216.359 244.723 C 216.116 244.269,215.820 242.481,215.702 240.749 C 215.583 239.017,215.338 237.600,215.158 237.600 C 214.978 237.600,214.643 236.901,214.413 236.047 C 214.182 235.192,213.726 234.270,213.397 233.998 C 213.069 233.725,212.800 233.336,212.800 233.134 C 212.800 232.660,212.170 231.912,210.229 230.081 C 209.366 229.267,208.331 228.285,207.929 227.900 C 207.528 227.515,206.795 227.199,206.300 227.198 C 205.805 227.196,204.884 226.926,204.254 226.598 C 203.388 226.146,201.658 226.000,197.154 226.000 L 191.200 226.000 191.200 248.800 " stroke="none" fill="#0cc4cc" fill-rule="evenodd"></path><path id="path3" d="M156.200 69.630 C 148.385 70.147,148.491 70.382,156.400 70.073 C 165.486 69.719,215.053 69.719,221.800 70.074 C 225.782 70.283,226.532 70.252,225.000 69.941 C 222.453 69.423,163.360 69.156,156.200 69.630 M137.000 70.841 C 135.680 71.016,133.250 71.322,131.600 71.521 C 128.890 71.848,128.794 71.888,130.600 71.933 C 131.700 71.961,133.860 71.787,135.400 71.545 C 136.940 71.304,140.540 70.977,143.400 70.818 L 148.600 70.530 144.000 70.526 C 141.470 70.524,138.320 70.665,137.000 70.841 M231.600 70.825 C 233.910 70.992,236.770 71.325,237.955 71.565 C 239.140 71.804,240.850 71.975,241.755 71.944 L 243.400 71.887 241.400 71.580 C 240.300 71.411,238.140 71.082,236.600 70.849 C 235.060 70.617,232.360 70.447,230.600 70.473 L 227.400 70.521 231.600 70.825 M123.522 72.211 C 123.406 72.328,122.521 72.593,121.555 72.801 C 119.451 73.255,122.673 72.972,126.000 72.411 L 127.800 72.107 125.767 72.053 C 124.648 72.024,123.638 72.095,123.522 72.211 M245.400 72.406 C 246.280 72.605,248.620 73.043,250.600 73.380 C 252.580 73.716,254.740 74.087,255.400 74.204 C 256.565 74.411,256.571 74.404,255.600 73.978 C 254.490 73.492,248.399 72.397,245.600 72.182 L 243.800 72.044 245.400 72.406 M114.600 73.823 L 113.000 74.385 114.600 74.150 C 115.480 74.021,117.010 73.779,118.000 73.611 L 119.800 73.307 118.000 73.284 C 117.010 73.272,115.480 73.514,114.600 73.823 M109.400 74.685 C 108.960 74.791,108.429 75.040,108.220 75.239 C 108.011 75.437,107.381 75.621,106.820 75.646 C 106.069 75.681,105.996 75.743,106.544 75.884 C 106.952 75.989,108.032 75.798,108.944 75.459 C 109.855 75.121,111.140 74.771,111.800 74.682 C 112.905 74.533,112.889 74.519,111.600 74.506 C 110.830 74.499,109.840 74.579,109.400 74.685 M257.800 74.672 C 258.240 74.769,259.345 75.124,260.256 75.462 C 261.168 75.799,262.248 75.989,262.656 75.884 C 263.204 75.743,263.131 75.681,262.380 75.646 C 261.819 75.621,261.182 75.422,260.964 75.204 C 260.746 74.986,259.765 74.737,258.784 74.652 C 257.803 74.566,257.360 74.575,257.800 74.672 M103.830 76.351 C 103.711 76.544,102.811 76.904,101.831 77.151 C 100.850 77.398,99.936 77.780,99.800 78.000 C 99.664 78.220,99.306 78.400,99.005 78.400 C 97.148 78.400,91.994 83.202,92.002 84.923 C 92.004 85.185,92.285 84.860,92.627 84.200 C 94.062 81.431,97.463 79.160,103.600 76.872 C 104.893 76.390,105.439 76.041,104.924 76.026 C 104.442 76.012,103.950 76.158,103.830 76.351 M263.600 76.102 C 263.937 76.459,269.747 78.386,269.931 78.202 C 270.101 78.032,269.558 77.792,266.800 76.815 C 265.082 76.206,263.329 75.816,263.600 76.102 M271.806 79.203 C 272.672 79.645,273.566 79.929,273.791 79.835 C 274.016 79.740,273.962 79.649,273.671 79.632 C 273.381 79.614,272.873 79.330,272.543 79.000 C 272.213 78.670,271.558 78.400,271.087 78.400 C 270.451 78.400,270.636 78.607,271.806 79.203 M274.620 80.357 C 274.829 80.554,275.990 81.243,277.200 81.890 C 286.262 86.731,294.786 94.055,299.246 100.833 C 300.393 102.576,301.421 103.912,301.530 103.803 C 301.639 103.694,301.430 103.275,301.064 102.871 C 300.699 102.467,300.400 102.014,300.400 101.864 C 300.400 99.485,287.590 87.256,281.688 84.000 C 281.089 83.670,280.506 83.276,280.392 83.125 C 280.277 82.974,279.737 82.656,279.192 82.418 C 278.646 82.181,277.407 81.540,276.437 80.993 C 274.614 79.966,273.961 79.737,274.620 80.357 M91.797 201.000 C 91.797 264.360,91.843 290.220,91.900 258.468 C 91.956 226.715,91.956 174.875,91.900 143.268 C 91.843 111.660,91.797 137.640,91.797 201.000 M301.600 104.720 C 301.600 104.896,301.763 105.211,301.962 105.420 C 302.162 105.629,302.784 106.880,303.346 108.200 C 303.908 109.520,304.375 110.303,304.384 109.941 C 304.393 109.579,303.855 108.184,303.189 106.841 C 302.059 104.563,301.600 103.951,301.600 104.720 M304.603 111.400 C 304.851 112.140,306.124 117.161,306.531 119.000 C 306.643 119.510,306.724 119.347,306.754 118.550 C 306.779 117.863,306.530 116.535,306.200 115.600 C 305.870 114.665,305.600 113.506,305.600 113.026 C 305.600 112.546,305.315 111.804,304.967 111.376 C 304.344 110.611,304.338 110.611,304.603 111.400 M307.054 122.400 C 307.200 123.610,307.449 125.410,307.607 126.400 L 307.893 128.200 307.929 126.200 C 307.949 125.100,307.700 123.300,307.376 122.200 L 306.788 120.200 307.054 122.400 M203.400 123.065 C 207.425 123.933,214.400 129.649,214.400 132.079 C 214.400 132.299,214.654 133.046,214.964 133.740 C 215.274 134.433,215.620 135.270,215.733 135.600 C 215.887 136.055,215.944 136.024,215.968 135.475 C 216.157 131.158,207.899 122.667,203.686 122.846 C 202.890 122.880,202.814 122.939,203.400 123.065 M308.169 136.400 C 308.169 140.910,308.227 142.755,308.298 140.500 C 308.370 138.245,308.370 134.555,308.298 132.300 C 308.227 130.045,308.169 131.890,308.169 136.400 M216.242 138.000 C 216.373 138.990,216.615 140.790,216.781 142.000 L 217.082 144.200 217.133 142.200 C 217.162 141.100,216.919 139.300,216.595 138.200 L 216.005 136.200 216.242 138.000 M217.324 146.600 C 217.326 147.920,217.401 148.412,217.490 147.693 C 217.579 146.974,217.577 145.894,217.486 145.293 C 217.395 144.692,217.322 145.280,217.324 146.600 M307.493 147.200 C 306.791 154.383,306.792 154.355,307.237 152.600 C 307.745 150.596,308.140 146.386,307.916 145.367 C 307.823 144.945,307.632 145.770,307.493 147.200 M216.707 151.400 C 216.546 152.720,216.324 154.520,216.214 155.400 C 216.025 156.919,216.045 156.898,216.609 155.000 C 216.935 153.900,217.157 152.100,217.101 151.000 L 217.000 149.000 216.707 151.400 M306.296 156.600 C 305.592 160.367,305.569 161.145,306.220 159.200 C 306.551 158.210,306.771 156.860,306.708 156.200 C 306.603 155.081,306.575 155.108,306.296 156.600 M215.634 158.000 C 215.601 158.550,215.310 159.349,214.987 159.776 C 214.664 160.204,214.400 160.787,214.400 161.072 C 214.400 163.474,208.981 168.323,205.023 169.464 C 203.716 169.840,202.860 170.220,203.121 170.307 C 205.623 171.141,212.251 166.549,214.095 162.704 C 214.439 161.987,215.029 160.763,215.406 159.984 C 215.783 159.206,216.002 158.216,215.892 157.784 C 215.729 157.142,215.682 157.181,215.634 158.000 M304.429 164.549 C 303.895 166.469,303.310 168.132,303.129 168.244 C 302.948 168.356,302.800 168.747,302.800 169.113 C 302.800 170.190,303.841 168.468,304.197 166.800 C 304.362 166.030,304.755 164.893,305.072 164.273 C 305.389 163.654,305.592 162.677,305.524 162.102 C 305.440 161.391,305.090 162.171,304.429 164.549 M191.150 170.512 C 191.323 170.683,193.969 170.773,197.032 170.710 L 202.600 170.597 196.719 170.399 C 193.484 170.289,190.978 170.340,191.150 170.512 M301.773 171.696 C 298.451 179.223,288.290 190.800,285.005 190.800 C 284.726 190.800,284.290 191.051,284.035 191.358 C 283.780 191.665,282.948 192.033,282.186 192.176 C 280.105 192.567,280.183 194.204,282.300 194.572 C 283.837 194.839,284.183 194.974,289.000 197.183 C 294.562 199.733,306.400 209.269,306.400 211.200 C 306.400 211.388,306.646 211.789,306.946 212.089 C 308.319 213.462,310.902 219.147,312.720 224.800 C 313.217 226.347,313.564 226.995,313.576 226.400 C 313.586 225.850,313.326 224.884,312.998 224.254 C 312.669 223.624,312.400 222.849,312.400 222.532 C 312.400 222.215,312.072 221.201,311.671 220.278 C 311.270 219.355,310.598 217.790,310.178 216.800 C 308.798 213.548,303.499 206.619,300.800 204.537 C 300.470 204.283,299.570 203.506,298.800 202.811 C 296.002 200.286,287.883 195.603,286.300 195.601 C 285.915 195.600,285.600 195.422,285.600 195.205 C 285.600 194.987,284.905 194.698,284.055 194.562 C 281.648 194.177,280.466 192.400,282.618 192.400 C 284.971 192.400,292.191 186.561,296.154 181.453 C 299.746 176.821,303.298 170.765,302.745 170.212 C 302.624 170.091,302.187 170.759,301.773 171.696 M191.061 225.500 C 190.958 225.665,192.612 225.752,194.737 225.694 C 201.865 225.498,202.643 225.349,196.924 225.274 C 193.802 225.233,191.163 225.335,191.061 225.500 M204.800 226.200 C 206.695 226.930,207.741 226.917,206.054 226.184 C 205.314 225.863,204.414 225.614,204.054 225.630 C 203.694 225.647,204.030 225.903,204.800 226.200 M208.408 227.689 C 208.962 228.190,209.876 228.962,210.439 229.404 C 211.824 230.491,214.273 233.953,214.612 235.303 C 214.763 235.907,215.047 236.400,215.243 236.400 C 215.440 236.400,215.614 236.805,215.632 237.300 C 215.649 237.795,215.756 237.968,215.870 237.684 C 216.498 236.120,211.721 229.228,208.902 227.630 L 207.400 226.779 208.408 227.689 M313.840 229.200 C 313.977 229.970,314.229 231.230,314.399 232.000 L 314.708 233.400 314.724 232.000 C 314.732 231.230,314.481 229.970,314.164 229.200 L 313.590 227.800 313.840 229.200 M315.058 236.600 C 315.609 242.303,315.937 244.094,315.791 240.600 C 315.717 238.840,315.470 236.680,315.241 235.800 C 314.861 234.337,314.846 234.406,315.058 236.600 M216.262 240.400 C 216.404 241.390,216.647 243.100,216.804 244.200 L 217.087 246.200 217.136 244.400 C 217.163 243.410,216.919 241.700,216.594 240.600 L 216.004 238.600 216.262 240.400 M316.169 252.200 C 316.170 256.820,316.228 258.655,316.299 256.278 C 316.370 253.901,316.369 250.121,316.298 247.878 C 316.227 245.635,316.169 247.580,316.169 252.200 M217.320 248.400 C 217.320 249.610,217.395 250.105,217.487 249.500 C 217.578 248.895,217.578 247.905,217.487 247.300 C 217.395 246.695,217.320 247.190,217.320 248.400 M216.722 253.400 C 215.925 259.137,215.922 259.224,216.611 256.800 C 216.954 255.590,217.183 253.880,217.118 253.000 L 217.000 251.400 216.722 253.400 M215.619 259.800 C 215.594 260.240,215.310 260.949,214.987 261.376 C 214.664 261.804,214.400 262.382,214.400 262.661 C 214.400 263.767,211.314 267.601,209.410 268.861 C 206.364 270.877,204.483 271.296,197.200 271.580 L 190.600 271.838 196.800 271.921 C 206.292 272.048,211.459 269.729,214.198 264.113 C 215.930 260.561,216.100 260.104,215.887 259.566 C 215.735 259.183,215.649 259.258,215.619 259.800 M315.251 264.253 C 314.949 266.263,314.800 268.153,314.920 268.453 C 315.039 268.754,315.151 268.442,315.168 267.760 C 315.186 267.078,315.391 265.971,315.625 265.300 C 315.859 264.630,315.994 263.298,315.925 262.341 C 315.819 260.870,315.715 261.167,315.251 264.253 M314.071 271.785 C 313.780 273.044,313.620 274.153,313.716 274.249 C 313.993 274.527,314.891 270.968,314.739 270.196 C 314.662 269.810,314.362 270.526,314.071 271.785 M313.260 275.313 C 313.183 276.231,311.707 280.790,311.194 281.695 C 310.977 282.077,310.800 282.612,310.800 282.884 C 310.800 283.773,311.890 281.835,312.197 280.400 C 312.362 279.630,312.755 278.493,313.072 277.873 C 313.389 277.254,313.574 276.264,313.484 275.673 C 313.394 275.083,313.293 274.921,313.260 275.313 M308.990 287.019 C 308.115 288.874,307.265 290.394,307.100 290.396 C 306.935 290.398,306.800 290.591,306.800 290.824 C 306.800 291.565,307.661 290.748,308.247 289.451 C 308.558 288.763,308.969 287.930,309.162 287.600 C 310.089 286.011,310.945 284.012,310.772 283.839 C 310.666 283.733,309.864 285.164,308.990 287.019 M305.041 293.712 C 303.472 296.075,298.128 302.392,297.679 302.413 C 297.526 302.421,296.505 303.236,295.412 304.225 C 293.493 305.960,289.195 309.001,287.266 309.987 C 286.752 310.250,286.427 310.560,286.543 310.676 C 286.659 310.792,287.584 310.328,288.597 309.644 C 289.611 308.960,290.525 308.400,290.629 308.400 C 291.550 308.400,299.323 301.606,301.600 298.810 C 302.590 297.595,303.625 296.456,303.900 296.280 C 304.175 296.104,304.400 295.718,304.400 295.423 C 304.400 295.127,304.670 294.782,305.000 294.655 C 305.330 294.529,305.600 294.209,305.600 293.944 C 305.600 293.679,305.899 293.133,306.264 292.729 C 306.630 292.325,306.827 291.894,306.704 291.770 C 306.580 291.647,305.832 292.520,305.041 293.712 M285.001 311.199 C 284.865 311.418,283.859 311.982,282.765 312.453 C 281.671 312.924,280.860 313.393,280.962 313.496 C 281.209 313.742,285.483 311.713,285.800 311.199 C 285.936 310.980,285.867 310.800,285.647 310.800 C 285.427 310.800,285.136 310.979,285.001 311.199 M279.476 313.857 C 279.156 314.177,274.725 315.996,274.260 315.998 C 274.074 315.999,273.354 316.254,272.660 316.564 C 271.967 316.874,271.130 317.220,270.800 317.333 C 270.462 317.447,270.637 317.545,271.200 317.556 C 271.750 317.566,272.549 317.310,272.976 316.987 C 273.404 316.664,274.034 316.399,274.376 316.398 C 274.719 316.396,275.478 316.146,276.061 315.841 C 276.645 315.537,277.768 315.075,278.556 314.815 C 279.344 314.554,280.092 314.175,280.218 313.971 C 280.476 313.553,279.873 313.461,279.476 313.857 M92.006 317.535 C 92.000 318.513,95.995 322.798,96.918 322.802 C 97.183 322.804,97.919 323.076,98.553 323.406 C 99.187 323.737,100.447 324.110,101.353 324.235 C 102.259 324.360,104.260 324.726,105.800 325.047 C 109.267 325.771,226.682 325.619,230.200 324.886 C 232.119 324.487,232.078 324.478,229.200 324.656 C 219.076 325.283,110.811 325.225,106.200 324.590 C 98.228 323.491,94.687 321.828,92.904 318.344 C 92.195 316.960,92.010 316.793,92.006 317.535 M267.600 318.225 C 266.380 318.687,266.329 318.756,267.200 318.763 C 267.750 318.768,268.650 318.514,269.200 318.200 C 270.433 317.495,269.491 317.510,267.600 318.225 M263.000 319.421 C 262.120 319.710,259.870 320.305,258.000 320.742 C 255.815 321.254,255.062 321.549,255.892 321.569 C 256.602 321.586,257.862 321.345,258.692 321.034 C 259.521 320.723,260.940 320.365,261.844 320.238 C 263.680 319.982,266.710 318.811,265.400 318.864 C 264.960 318.882,263.880 319.133,263.000 319.421 M250.000 322.217 C 248.073 322.660,247.974 322.727,249.200 322.755 C 249.970 322.773,251.410 322.533,252.400 322.221 C 254.658 321.509,253.086 321.507,250.000 322.217 M242.600 323.246 C 241.940 323.453,239.330 323.787,236.800 323.987 L 232.200 324.351 237.200 324.157 C 242.095 323.966,249.097 322.866,245.400 322.868 C 244.520 322.868,243.260 323.038,242.600 323.246 " stroke="none" fill="#6edae0" fill-rule="evenodd"></path><path id="path4" d="M151.600 69.260 C 150.170 69.446,146.930 69.763,144.400 69.965 C 139.838 70.328,139.853 70.330,146.200 70.160 C 149.720 70.066,154.940 69.819,157.800 69.613 C 164.537 69.127,215.381 69.125,220.600 69.611 C 222.800 69.816,226.670 70.057,229.200 70.147 C 232.956 70.280,233.250 70.255,230.800 70.009 C 229.150 69.843,226.630 69.507,225.200 69.262 C 222.094 68.729,155.693 68.728,151.600 69.260 M131.700 70.812 C 130.192 71.418,130.692 71.720,132.700 71.417 C 133.745 71.259,135.680 70.993,137.000 70.826 L 139.400 70.522 136.000 70.486 C 134.130 70.467,132.195 70.613,131.700 70.812 M236.600 70.811 C 237.700 70.975,239.320 71.233,240.200 71.383 C 241.699 71.639,241.751 71.617,241.024 71.028 C 240.464 70.575,239.460 70.416,237.424 70.456 L 234.600 70.513 236.600 70.811 M120.854 72.216 C 120.114 72.537,118.404 72.801,117.054 72.802 C 115.660 72.804,114.105 73.063,113.454 73.402 C 112.824 73.731,111.834 74.021,111.254 74.046 C 110.436 74.082,110.375 74.137,110.985 74.292 C 111.417 74.402,113.037 74.209,114.585 73.863 C 117.936 73.114,122.349 72.413,126.200 72.017 L 129.000 71.729 125.600 71.680 C 123.399 71.649,121.725 71.837,120.854 72.216 M245.200 71.988 C 246.410 72.162,248.120 72.439,249.000 72.604 C 250.349 72.857,250.519 72.818,250.082 72.354 C 249.736 71.987,248.475 71.782,246.282 71.738 C 243.212 71.675,243.142 71.691,245.200 71.988 M252.660 73.201 C 253.792 73.367,254.916 73.624,255.157 73.773 C 255.397 73.922,256.687 74.220,258.023 74.435 C 259.359 74.650,260.792 75.038,261.208 75.298 C 261.624 75.557,262.102 75.632,262.270 75.463 C 262.760 74.973,261.645 74.498,259.326 74.208 C 258.142 74.060,256.685 73.684,256.087 73.372 C 255.487 73.059,254.014 72.826,252.800 72.852 L 250.600 72.900 252.660 73.201 M107.212 74.784 C 106.312 75.353,107.078 75.794,108.101 75.297 C 108.595 75.056,109.270 74.770,109.600 74.661 C 109.930 74.552,109.660 74.452,109.000 74.438 C 108.340 74.424,107.535 74.580,107.212 74.784 M102.976 76.187 C 102.549 76.510,101.727 76.780,101.149 76.787 C 100.571 76.794,99.883 77.058,99.621 77.374 C 99.359 77.690,98.632 78.061,98.006 78.199 C 97.379 78.336,96.767 78.708,96.646 79.024 C 96.524 79.341,96.177 79.600,95.875 79.600 C 94.365 79.600,91.581 83.158,91.650 85.000 C 91.693 86.143,91.707 86.152,91.947 85.200 C 92.592 82.651,96.905 78.442,98.928 78.387 C 99.188 78.380,99.749 78.110,100.176 77.787 C 100.604 77.464,101.206 77.200,101.516 77.200 C 101.826 77.200,102.646 76.942,103.340 76.627 C 104.033 76.312,104.960 75.973,105.400 75.874 C 105.929 75.754,105.786 75.677,104.976 75.646 C 104.304 75.621,103.404 75.864,102.976 76.187 M264.200 76.002 C 265.948 76.469,268.020 77.213,269.466 77.894 C 270.162 78.221,270.972 78.393,271.266 78.276 C 271.647 78.124,271.613 78.054,271.149 78.032 C 270.791 78.014,270.274 77.730,270.000 77.400 C 269.726 77.070,268.971 76.800,268.322 76.800 C 267.674 76.800,266.873 76.530,266.543 76.200 C 266.207 75.864,265.296 75.618,264.471 75.641 L 263.000 75.682 264.200 76.002 M272.590 79.048 C 272.947 79.404,273.338 79.596,273.459 79.474 C 273.815 79.118,273.206 78.400,272.548 78.400 C 272.025 78.400,272.031 78.488,272.590 79.048 M276.000 80.791 C 277.210 81.438,278.646 82.167,279.192 82.409 C 279.737 82.652,280.277 82.974,280.392 83.125 C 280.506 83.276,281.089 83.670,281.688 84.000 C 284.890 85.767,289.070 89.101,293.220 93.200 C 298.372 98.288,299.510 99.828,302.669 105.977 C 303.628 107.844,304.249 108.691,304.334 108.247 C 304.409 107.859,304.184 107.225,303.835 106.839 C 303.486 106.453,303.200 105.858,303.200 105.517 C 303.200 105.177,302.930 104.674,302.600 104.400 C 302.270 104.126,302.000 103.682,302.000 103.412 C 302.000 103.143,301.640 102.507,301.200 102.000 C 300.760 101.493,300.400 100.829,300.400 100.526 C 300.400 100.223,300.130 99.871,299.800 99.745 C 299.470 99.618,299.200 99.273,299.200 98.977 C 299.200 98.682,298.972 98.296,298.694 98.120 C 298.416 97.944,297.381 96.811,296.394 95.603 C 295.407 94.394,293.802 92.684,292.827 91.803 C 291.853 90.921,290.759 89.916,290.397 89.569 C 290.035 89.223,289.438 88.823,289.069 88.682 C 288.701 88.541,288.400 88.239,288.400 88.013 C 288.400 87.786,288.130 87.600,287.800 87.600 C 287.470 87.600,287.200 87.452,287.200 87.271 C 287.200 86.896,284.117 84.800,283.564 84.800 C 283.364 84.800,283.200 84.630,283.200 84.422 C 283.200 84.047,282.166 83.402,279.749 82.268 C 279.061 81.946,278.375 81.483,278.225 81.241 C 278.075 80.998,277.623 80.800,277.219 80.800 C 276.816 80.800,276.382 80.530,276.255 80.200 C 276.126 79.863,275.537 79.603,274.913 79.607 C 273.938 79.613,274.073 79.759,276.000 80.791 M304.400 109.679 C 304.400 110.040,304.653 110.845,304.962 111.468 C 305.637 112.830,306.423 115.868,306.807 118.600 L 307.087 120.600 307.144 118.460 C 307.175 117.284,306.947 115.754,306.638 115.060 C 306.329 114.367,305.981 113.127,305.864 112.305 C 305.635 110.692,304.400 108.477,304.400 109.679 M307.433 122.000 C 307.593 122.770,307.848 124.570,307.999 126.000 L 308.274 128.600 308.337 125.376 C 308.384 122.969,308.241 121.956,307.771 121.376 C 307.179 120.645,307.160 120.682,307.433 122.000 M190.984 123.300 C 190.878 123.575,190.839 134.240,190.896 147.000 L 191.000 170.200 196.515 170.311 C 204.975 170.482,209.511 168.694,212.812 163.887 C 214.444 161.511,215.030 159.892,213.600 161.709 C 213.160 162.269,212.800 162.897,212.800 163.106 C 212.800 163.667,208.768 167.600,208.192 167.600 C 207.920 167.600,207.474 167.870,207.200 168.200 C 206.926 168.530,206.178 168.800,205.538 168.800 C 204.898 168.800,203.728 169.070,202.938 169.400 C 201.914 169.828,200.025 170.000,196.351 170.000 L 191.200 170.000 191.200 146.611 L 191.200 123.221 197.100 123.099 L 203.000 122.977 197.087 122.888 C 192.659 122.822,191.127 122.926,190.984 123.300 M203.600 123.557 C 203.600 124.011,204.612 124.404,205.733 124.386 C 206.563 124.372,206.558 124.347,205.600 123.800 C 204.450 123.143,203.600 123.040,203.600 123.557 M207.558 125.100 C 210.821 127.582,214.400 132.168,214.400 133.867 C 214.400 134.354,214.592 134.871,214.827 135.016 C 215.563 135.472,215.637 134.963,215.010 133.760 C 214.677 133.122,214.404 132.393,214.402 132.140 C 214.398 131.219,210.703 126.791,208.954 125.611 C 207.023 124.308,206.045 123.950,207.558 125.100 M215.761 138.631 C 215.828 140.189,216.100 141.809,216.365 142.231 C 216.905 143.092,216.754 141.067,216.020 137.600 C 215.665 135.921,215.647 135.991,215.761 138.631 M216.931 146.600 C 216.933 148.140,217.005 148.721,217.092 147.891 C 217.179 147.061,217.177 145.801,217.089 145.091 C 217.000 144.381,216.929 145.060,216.931 146.600 M308.083 147.040 C 308.037 148.602,307.805 150.439,307.567 151.122 C 306.958 152.869,307.301 154.221,307.951 152.637 C 308.241 151.931,308.377 150.042,308.297 147.837 C 308.175 144.441,308.161 144.388,308.083 147.040 M216.073 151.800 C 215.815 152.680,215.624 154.300,215.649 155.400 C 215.673 156.500,215.764 157.040,215.851 156.600 C 215.938 156.160,216.208 154.891,216.449 153.780 C 217.027 151.129,216.729 149.561,216.073 151.800 M306.877 155.534 C 306.801 157.252,305.907 161.485,305.133 163.800 C 304.189 166.622,304.184 166.671,304.932 165.924 C 305.304 165.553,305.714 164.383,305.842 163.324 C 305.971 162.266,306.338 160.815,306.657 160.099 C 307.031 159.263,307.187 157.906,307.096 156.299 C 306.992 154.461,306.934 154.259,306.877 155.534 M214.895 158.465 C 214.623 158.737,214.400 159.324,214.400 159.769 C 214.400 160.543,214.427 160.539,215.030 159.679 C 215.758 158.639,215.654 157.706,214.895 158.465 M304.000 167.368 C 304.000 167.680,303.704 168.535,303.343 169.268 C 301.890 172.211,301.600 172.883,301.600 173.301 C 301.600 173.541,301.285 174.092,300.900 174.527 C 300.350 175.147,300.329 175.276,300.800 175.126 C 301.130 175.021,301.579 174.409,301.798 173.767 C 302.016 173.125,302.421 172.362,302.698 172.071 C 302.974 171.781,303.200 171.183,303.200 170.743 C 303.200 170.303,303.470 169.673,303.800 169.343 C 304.351 168.792,304.664 166.800,304.200 166.800 C 304.090 166.800,304.000 167.055,304.000 167.368 M298.850 177.769 C 295.583 182.955,290.222 188.332,285.572 191.087 C 284.377 191.794,283.702 192.379,284.071 192.387 C 284.441 192.394,284.988 192.175,285.288 191.900 C 285.979 191.267,287.120 190.533,288.400 189.899 C 289.615 189.296,296.400 182.617,296.400 182.023 C 296.400 181.790,296.584 181.600,296.809 181.600 C 297.033 181.600,297.435 181.105,297.700 180.500 C 297.966 179.895,298.412 179.256,298.692 179.080 C 298.971 178.904,299.200 178.564,299.200 178.324 C 299.200 178.084,299.490 177.676,299.843 177.418 C 300.197 177.159,300.422 176.650,300.343 176.286 C 300.247 175.842,299.757 176.328,298.850 177.769 M281.729 193.040 C 281.445 193.781,282.243 194.406,283.400 194.347 C 284.122 194.311,284.129 194.289,283.463 194.117 C 282.968 193.989,282.791 193.676,282.925 193.164 C 283.173 192.219,282.087 192.107,281.729 193.040 M284.900 194.676 C 285.285 194.776,285.600 195.025,285.600 195.229 C 285.600 195.433,285.892 195.600,286.249 195.600 C 286.780 195.600,286.808 195.491,286.400 195.000 C 286.126 194.670,285.519 194.421,285.051 194.446 C 284.375 194.483,284.344 194.530,284.900 194.676 M290.200 197.248 C 293.958 199.181,296.853 201.053,298.800 202.811 C 299.570 203.506,300.470 204.283,300.800 204.537 C 303.777 206.833,308.919 213.711,310.418 217.400 C 310.954 218.720,311.618 220.250,311.894 220.800 L 312.395 221.800 312.398 220.749 C 312.399 220.171,312.130 219.474,311.800 219.200 C 311.470 218.926,311.200 218.287,311.200 217.780 C 311.200 217.272,310.973 216.619,310.695 216.329 C 310.418 216.038,309.959 215.350,309.676 214.800 C 308.387 212.297,307.930 211.600,307.578 211.600 C 307.370 211.600,307.200 211.394,307.200 211.141 C 307.200 210.126,301.553 204.006,299.200 202.471 C 298.650 202.113,298.056 201.590,297.880 201.310 C 297.704 201.029,297.299 200.800,296.980 200.800 C 296.661 200.800,296.400 200.616,296.400 200.390 C 296.400 200.165,295.995 199.805,295.500 199.591 C 294.490 199.154,293.466 198.533,292.051 197.500 C 291.523 197.115,290.834 196.800,290.517 196.800 C 290.201 196.800,289.673 196.530,289.343 196.200 C 289.013 195.870,288.351 195.600,287.871 195.601 C 287.352 195.601,288.294 196.267,290.200 197.248 M312.400 222.669 C 312.400 222.911,312.669 223.624,312.998 224.254 C 313.326 224.884,313.596 225.883,313.598 226.474 C 313.599 227.065,313.803 228.055,314.050 228.674 C 314.298 229.293,314.633 230.880,314.796 232.200 L 315.091 234.600 315.145 232.060 C 315.176 230.621,314.956 228.975,314.637 228.260 C 314.327 227.567,313.981 226.210,313.868 225.245 C 313.689 223.726,312.400 221.463,312.400 222.669 M190.984 226.100 C 190.878 226.375,190.841 236.770,190.900 249.200 L 191.007 271.800 191.103 248.900 L 191.200 226.000 197.154 226.000 C 201.658 226.000,203.388 226.146,204.254 226.598 C 204.884 226.926,205.805 227.196,206.300 227.198 C 206.795 227.199,207.528 227.515,207.929 227.900 C 208.331 228.285,209.366 229.267,210.229 230.081 C 212.170 231.912,212.800 232.660,212.800 233.134 C 212.800 233.336,213.069 233.725,213.397 233.998 C 213.726 234.270,214.182 235.192,214.413 236.047 C 214.822 237.566,215.600 238.191,215.600 237.000 C 215.600 236.670,215.440 236.400,215.243 236.400 C 215.047 236.400,214.766 235.918,214.618 235.329 C 213.811 232.115,208.992 227.491,205.213 226.306 C 202.431 225.433,191.300 225.272,190.984 226.100 M315.405 236.200 C 315.576 237.080,315.848 239.240,316.009 241.000 L 316.304 244.200 316.252 239.919 C 316.215 236.851,316.044 235.491,315.648 235.119 C 315.181 234.680,315.144 234.848,315.405 236.200 M215.785 240.877 C 215.867 242.570,216.141 244.280,216.393 244.677 C 216.899 245.474,216.714 243.079,216.003 239.600 C 215.682 238.032,215.654 238.197,215.785 240.877 M216.934 248.800 C 216.934 250.450,217.005 251.125,217.091 250.300 C 217.178 249.475,217.178 248.125,217.091 247.300 C 217.005 246.475,216.934 247.150,216.934 248.800 M216.241 252.620 C 216.073 253.049,215.858 254.750,215.765 256.400 C 215.568 259.872,215.718 259.723,216.410 255.759 C 216.917 252.853,216.825 251.132,216.241 252.620 M214.921 260.056 C 214.674 260.355,214.348 261.263,214.196 262.072 C 214.045 262.882,213.669 263.641,213.361 263.760 C 213.052 263.878,212.800 264.168,212.800 264.404 C 212.800 265.226,209.928 268.183,208.400 268.936 C 206.514 269.865,205.826 270.388,206.485 270.394 C 208.415 270.411,214.400 264.573,214.400 262.674 C 214.400 262.401,214.683 261.773,215.030 261.279 C 215.743 260.260,215.647 259.178,214.921 260.056 M316.080 262.240 C 316.036 263.362,315.806 264.837,315.569 265.517 C 315.332 266.197,315.210 267.168,315.298 267.676 C 315.658 269.763,316.433 266.313,316.296 263.233 C 316.200 261.069,316.138 260.784,316.080 262.240 M314.765 270.400 C 314.517 272.321,313.792 275.434,313.133 277.400 C 312.264 279.995,312.240 280.292,312.980 279.295 C 313.350 278.798,313.747 277.718,313.864 276.895 C 313.981 276.073,314.338 274.813,314.659 274.096 C 315.001 273.329,315.191 271.928,315.119 270.696 L 314.997 268.600 314.765 270.400 M202.576 270.987 C 201.505 271.798,202.614 271.815,204.454 271.016 L 205.800 270.431 204.576 270.416 C 203.904 270.407,203.004 270.664,202.576 270.987 M312.000 280.968 C 312.000 281.280,311.752 282.045,311.449 282.668 C 311.146 283.290,310.586 284.520,310.205 285.400 C 309.824 286.280,309.354 287.270,309.162 287.600 C 308.969 287.930,308.540 288.740,308.207 289.400 C 307.874 290.060,307.244 291.140,306.807 291.800 C 306.370 292.460,305.834 293.405,305.616 293.900 C 305.398 294.395,305.035 294.800,304.810 294.800 C 304.584 294.800,304.400 295.061,304.400 295.380 C 304.400 295.699,304.175 296.104,303.900 296.280 C 303.625 296.456,302.590 297.595,301.600 298.810 C 299.323 301.606,291.550 308.400,290.629 308.400 C 290.525 308.400,289.666 308.895,288.720 309.500 C 287.774 310.105,286.640 310.822,286.200 311.093 C 285.311 311.640,281.960 313.264,279.200 314.486 C 278.210 314.924,276.860 315.530,276.200 315.832 L 275.000 316.382 276.051 316.391 C 276.629 316.396,277.326 316.130,277.600 315.800 C 277.874 315.470,278.504 315.200,279.000 315.200 C 279.496 315.200,280.126 314.930,280.400 314.600 C 280.674 314.270,281.129 314.000,281.412 314.000 C 282.164 314.000,286.000 311.946,286.000 311.543 C 286.000 311.354,286.347 311.200,286.771 311.200 C 287.196 311.200,287.789 310.954,288.090 310.653 C 288.391 310.352,288.993 309.993,289.427 309.855 C 289.862 309.717,290.809 309.063,291.533 308.402 C 292.257 307.741,292.936 307.200,293.041 307.200 C 293.422 307.200,295.770 305.360,297.762 303.500 C 298.882 302.455,299.933 301.600,300.099 301.600 C 300.264 301.600,300.400 301.429,300.400 301.220 C 300.400 301.011,301.300 299.887,302.400 298.722 C 303.500 297.556,304.400 296.480,304.400 296.330 C 304.400 296.180,304.625 295.814,304.900 295.518 C 305.997 294.334,307.200 292.398,307.200 291.816 C 307.200 291.477,307.354 291.200,307.543 291.200 C 307.908 291.200,310.000 287.397,310.000 286.735 C 310.000 286.519,310.270 286.073,310.600 285.743 C 310.930 285.413,311.200 284.783,311.200 284.343 C 311.200 283.903,311.470 283.273,311.800 282.943 C 312.351 282.392,312.664 280.400,312.200 280.400 C 312.090 280.400,312.000 280.655,312.000 280.968 M91.745 317.369 C 91.780 318.373,92.016 319.009,92.400 319.134 C 92.875 319.289,92.903 319.212,92.535 318.765 C 92.280 318.454,91.985 317.660,91.880 317.000 C 91.736 316.094,91.703 316.184,91.745 317.369 M272.989 316.945 C 272.555 317.245,271.660 317.584,271.000 317.699 C 270.340 317.814,269.260 318.095,268.600 318.323 C 267.940 318.551,266.230 319.101,264.800 319.547 C 262.448 320.279,262.339 320.358,263.651 320.378 C 264.477 320.391,265.317 320.141,265.600 319.800 C 265.876 319.467,266.748 319.200,267.560 319.200 C 268.364 319.200,269.377 318.956,269.811 318.657 C 270.245 318.358,271.230 317.992,272.000 317.844 C 273.521 317.552,275.407 316.400,274.365 316.400 C 274.042 316.400,273.423 316.645,272.989 316.945 M92.800 319.906 C 92.800 320.393,94.552 322.000,95.083 322.000 C 95.320 322.000,95.618 322.270,95.745 322.600 C 95.871 322.930,96.319 323.200,96.738 323.200 C 97.158 323.200,97.726 323.470,98.000 323.800 C 98.274 324.130,99.061 324.386,99.749 324.368 C 100.437 324.351,100.730 324.245,100.400 324.133 C 100.070 324.020,99.233 323.674,98.540 323.364 C 97.846 323.054,97.138 322.800,96.965 322.800 C 96.793 322.800,95.785 322.069,94.726 321.176 C 93.667 320.283,92.800 319.712,92.800 319.906 M258.600 321.014 C 257.940 321.317,256.769 321.572,255.997 321.582 C 255.226 321.592,253.966 321.798,253.197 322.040 C 252.429 322.282,250.630 322.629,249.200 322.811 L 246.600 323.142 250.071 323.044 C 251.980 322.990,253.780 322.758,254.071 322.528 C 254.362 322.298,255.737 321.997,257.128 321.858 C 259.510 321.621,262.596 320.350,260.589 320.432 C 260.155 320.450,259.260 320.712,258.600 321.014 M244.314 323.419 C 244.194 323.539,242.949 323.797,241.548 323.992 L 239.000 324.346 242.282 324.271 C 245.300 324.202,248.355 323.200,245.547 323.200 C 244.989 323.200,244.435 323.299,244.314 323.419 M103.000 325.116 C 104.863 326.178,231.630 326.138,234.400 325.075 L 236.200 324.384 233.200 324.592 C 231.550 324.707,228.580 324.977,226.600 325.193 C 220.275 325.883,108.715 325.712,105.800 325.008 C 102.433 324.195,101.451 324.233,103.000 325.116 " stroke="none" fill="#35ccd5" fill-rule="evenodd"></path></g></svg>