<svg id="svg" version="1.1" xmlns="http://www.w3.org/2000/svg" xmlns:xlink="http://www.w3.org/1999/xlink" width="400" height="400" viewBox="0, 0, 400,400"><g id="svgg"><path id="path0" d="M164.257 23.846 C 160.434 24.571,156.926 26.037,153.385 28.390 C 152.196 29.180,137.428 43.712,111.923 69.190 L 72.308 108.764 72.308 202.156 L 72.308 295.549 111.615 334.807 C 136.438 359.598,151.678 374.594,152.971 375.501 C 162.889 382.452,175.535 382.494,185.846 375.609 C 186.608 375.101,199.030 362.907,213.451 348.511 L 239.671 322.338 236.363 318.938 C 220.548 302.686,220.196 281.075,235.509 266.529 C 246.073 256.494,265.150 253.731,275.658 260.714 C 276.269 261.120,277.323 261.775,278.000 262.169 C 280.260 263.484,282.892 265.640,286.362 269.016 L 289.800 272.362 315.746 246.308 C 342.934 219.007,343.948 217.896,345.828 213.380 C 349.491 204.583,348.610 193.745,343.662 186.734 C 343.350 186.292,343.195 185.829,343.317 185.705 C 343.439 185.581,333.673 175.678,321.615 163.700 C 309.558 151.721,299.692 141.822,299.692 141.702 C 299.692 141.583,300.395 140.424,301.254 139.127 C 314.704 118.815,310.661 89.766,292.222 74.228 C 275.112 59.808,250.501 58.244,232.308 70.418 L 230.000 71.963 208.462 50.492 C 186.272 28.372,185.350 27.538,181.099 25.746 C 176.054 23.619,169.408 22.869,164.257 23.846 M174.205 38.705 C 177.303 39.798,178.559 40.964,204.316 66.661 L 229.709 91.995 232.778 88.899 C 235.622 86.029,239.367 82.769,239.820 82.769 C 239.927 82.769,241.084 82.148,242.392 81.390 C 259.679 71.359,282.531 78.247,291.372 96.154 C 298.468 110.527,295.710 125.740,283.810 137.860 C 281.714 139.993,280.000 141.865,280.000 142.019 C 280.000 142.173,291.677 154.001,305.949 168.304 C 329.984 192.389,331.959 194.447,332.717 196.189 C 334.379 200.009,334.329 204.539,332.583 208.251 C 331.695 210.142,290.440 252.308,289.479 252.308 C 289.354 252.308,288.070 251.537,286.625 250.596 C 274.213 242.505,257.733 240.518,243.647 245.414 C 213.130 256.021,200.635 292.522,218.319 319.401 L 220.020 321.988 199.010 342.963 C 176.776 365.161,176.949 365.007,173.077 366.043 C 169.890 366.895,165.628 366.347,162.769 364.717 C 161.384 363.927,118.684 321.560,99.345 301.787 L 89.807 292.036 125.918 255.787 C 147.882 233.739,162.459 218.876,163.128 217.846 C 169.570 207.928,169.427 195.698,162.752 185.810 C 161.885 184.525,149.041 171.412,125.599 147.880 L 89.772 111.913 125.578 76.169 C 163.175 38.637,162.373 39.384,166.186 38.313 C 168.321 37.714,171.890 37.888,174.205 38.705 M131.718 174.363 C 150.138 192.851,151.650 194.448,152.427 196.230 C 154.174 200.239,154.117 204.429,152.262 208.308 C 151.239 210.448,131.152 230.898,99.615 261.906 L 86.769 274.536 86.769 202.154 L 86.769 129.771 99.308 142.094 C 106.204 148.872,120.788 163.393,131.718 174.363 " stroke="none" fill="#040404" fill-rule="evenodd"></path><path id="path1" d="M178.125 44.643 C 176.681 45.564,165.941 56.106,138.000 84.025 L 99.846 122.149 130.769 153.206 C 179.028 201.675,178.141 200.723,179.836 205.818 C 181.804 211.734,181.377 217.345,178.536 222.923 C 177.518 224.921,174.655 227.864,138.873 263.695 C 117.662 284.935,100.308 302.453,100.308 302.623 C 100.308 303.643,161.447 363.957,163.418 364.882 C 167.462 366.780,171.839 366.742,175.846 364.776 C 177.851 363.792,179.442 362.276,198.895 342.810 L 219.790 321.900 218.025 319.181 C 205.092 299.263,208.394 272.228,225.740 256.001 C 242.500 240.323,269.216 238.109,287.385 250.890 L 289.385 252.298 310.183 231.505 C 323.532 218.160,331.324 210.145,331.939 209.126 C 334.380 205.082,334.436 199.739,332.084 195.254 C 331.468 194.078,324.894 187.301,305.499 167.846 L 279.732 142.000 283.503 138.127 C 301.018 120.135,298.240 93.816,277.526 81.510 L 275.383 80.237 272.538 80.717 C 265.133 81.969,257.158 85.792,251.667 90.722 L 249.950 92.265 245.209 87.517 C 242.602 84.906,240.341 82.769,240.186 82.769 C 239.617 82.769,236.423 85.413,233.081 88.651 L 229.658 91.967 205.368 67.676 C 192.009 54.316,180.857 43.385,180.587 43.385 C 180.317 43.385,179.209 43.951,178.125 44.643 M302.823 87.000 C 302.881 87.127,303.500 88.338,304.198 89.692 C 312.084 104.985,310.955 124.806,301.383 139.107 L 299.669 141.667 305.059 147.056 L 310.448 152.446 311.670 151.252 C 326.520 136.752,325.937 108.607,310.462 92.901 C 307.341 89.733,302.290 85.831,302.823 87.000 M345.077 189.077 C 350.061 198.927,349.235 209.903,342.830 218.923 C 342.229 219.769,331.844 230.384,319.751 242.511 L 297.764 264.561 299.113 265.242 C 301.533 266.464,305.440 269.143,307.777 271.181 L 310.067 273.177 333.904 249.281 C 362.288 220.827,361.378 222.038,361.342 212.769 C 361.312 204.913,359.500 201.752,349.084 191.385 L 343.365 185.692 345.077 189.077 M255.403 257.268 C 238.524 259.224,225.395 273.433,224.702 290.497 C 224.251 301.605,227.475 309.572,235.903 318.177 C 237.987 320.306,239.692 322.178,239.692 322.339 C 239.692 322.937,187.842 374.378,186.000 375.607 C 183.589 377.216,180.893 378.559,178.686 379.252 C 176.498 379.938,176.552 380.139,179.355 381.743 C 186.304 385.720,195.336 385.291,202.054 380.666 C 203.047 379.983,214.165 369.096,226.985 356.255 L 250.123 333.077 248.262 330.923 C 226.669 305.935,239.879 267.798,272.337 261.418 L 275.833 260.731 273.432 259.732 C 267.770 257.375,261.673 256.542,255.403 257.268 " stroke="none" fill="#fbcb33" fill-rule="evenodd"></path><path id="path2" d="M99.385 202.230 L 99.385 261.999 125.215 236.170 C 142.493 218.892,151.295 209.878,151.803 208.940 C 153.926 205.015,154.109 200.306,152.294 196.267 C 151.293 194.040,150.827 193.551,125.567 168.231 C 111.427 154.058,99.752 142.462,99.621 142.462 C 99.491 142.462,99.385 169.357,99.385 202.230 M164.762 188.946 C 169.633 198.329,168.902 209.822,162.887 218.412 C 161.990 219.693,149.819 232.113,130.419 251.542 L 99.385 282.622 99.385 292.327 C 99.385 298.277,99.502 302.148,99.687 302.333 C 100.300 302.946,177.248 225.449,178.535 222.923 C 181.413 217.277,181.821 211.452,179.749 205.597 C 178.418 201.834,176.611 199.498,169.720 192.629 L 163.406 186.335 164.762 188.946 " stroke="none" fill="#fc9c04" fill-rule="evenodd"></path><path id="path3" d="M309.329 112.000 C 309.329 113.100,309.385 113.550,309.453 113.000 C 309.522 112.450,309.522 111.550,309.453 111.000 C 309.385 110.450,309.329 110.900,309.329 112.000 M304.769 147.077 C 307.642 149.954,310.062 152.308,310.147 152.308 C 310.232 152.308,307.950 149.954,305.077 147.077 C 302.204 144.200,299.784 141.846,299.699 141.846 C 299.614 141.846,301.896 144.200,304.769 147.077 M153.616 202.000 C 153.619 202.677,153.682 202.918,153.756 202.535 C 153.830 202.152,153.827 201.598,153.750 201.304 C 153.673 201.010,153.613 201.323,153.616 202.000 M125.076 236.385 L 99.538 262.000 125.154 236.462 C 148.967 212.722,150.907 210.769,150.692 210.769 C 150.649 210.769,139.122 222.296,125.076 236.385 M129.999 251.769 L 99.231 282.615 130.077 251.847 C 158.753 223.242,161.061 220.923,160.846 220.923 C 160.803 220.923,146.922 234.804,129.999 251.769 M259.158 242.682 C 259.626 242.753,260.318 242.751,260.697 242.678 C 261.075 242.605,260.692 242.547,259.846 242.550 C 259.000 242.552,258.690 242.612,259.158 242.682 M224.615 257.077 C 223.868 257.838,223.326 258.462,223.410 258.462 C 223.495 258.462,224.176 257.838,224.923 257.077 C 225.670 256.315,226.213 255.692,226.128 255.692 C 226.044 255.692,225.363 256.315,224.615 257.077 M224.379 290.769 C 224.379 291.362,224.442 291.604,224.520 291.308 C 224.597 291.012,224.597 290.527,224.520 290.231 C 224.442 289.935,224.379 290.177,224.379 290.769 M224.379 293.846 C 224.379 294.438,224.442 294.681,224.520 294.385 C 224.597 294.088,224.597 293.604,224.520 293.308 C 224.442 293.012,224.379 293.254,224.379 293.846 M236.462 319.077 C 238.147 320.769,239.596 322.154,239.681 322.154 C 239.765 322.154,238.455 320.769,236.769 319.077 C 235.083 317.385,233.635 316.000,233.550 316.000 C 233.465 316.000,234.776 317.385,236.462 319.077 " stroke="none" fill="#966409" fill-rule="evenodd"></path><path id="path4" d="M309.845 231.923 L 289.385 252.462 309.923 232.001 C 329.015 212.981,330.600 211.385,330.384 211.385 C 330.341 211.385,321.099 220.627,309.845 231.923 M319.076 243.000 L 297.692 264.462 319.154 243.078 C 339.104 223.200,340.753 221.538,340.538 221.538 C 340.495 221.538,330.837 231.196,319.076 243.000 M257.000 242.674 C 257.296 242.751,257.781 242.751,258.077 242.674 C 258.373 242.596,258.131 242.533,257.538 242.533 C 256.946 242.533,256.704 242.596,257.000 242.674 M199.384 342.385 L 178.923 362.923 199.462 342.462 C 218.554 323.443,220.138 321.846,219.922 321.846 C 219.879 321.846,210.637 331.088,199.384 342.385 M214.153 347.923 L 188.769 373.385 214.231 348.001 C 228.235 334.040,239.692 322.582,239.692 322.539 C 239.692 322.324,237.751 324.253,214.153 347.923 " stroke="none" fill="#9b8222" fill-rule="evenodd"></path></g></svg>