<?xml version="1.0" encoding="UTF-8" standalone="no"?><!DOCTYPE svg PUBLIC "-//W3C//DTD SVG 1.1//EN" "http://www.w3.org/Graphics/SVG/1.1/DTD/svg11.dtd"><svg width="100%" height="100%" viewBox="0 0 471 471" version="1.1" xmlns="http://www.w3.org/2000/svg" xmlns:xlink="http://www.w3.org/1999/xlink" xml:space="preserve" xmlns:serif="http://www.serif.com/" style="fill-rule:evenodd;clip-rule:evenodd;stroke-linejoin:round;stroke-miterlimit:2;"><g><g><path d="M118.372,261.674c-41.766,-101.512 62.75,-183.291 145.657,-140.957c-4.979,3.87 -9.674,7.557 -14.993,12.635c-2.876,2.746 -9.885,8.441 -11.355,12.011c-3.33,8.083 -1.115,15.09 4.943,20.774c2.305,2.162 5.072,3.972 8.353,4.176c2.296,0.143 5.15,0.397 7.396,-0.102c12.228,-2.718 20.953,-13.134 30.193,-20.781c8.086,-6.691 18.104,-14.88 26.754,-21.912c11.455,-9.312 8.837,-19.718 6.659,-32.383c-1.515,-8.808 -8.077,-44.713 -10.083,-53.25c-6.131,-26.098 -42.481,-13.774 -37.798,6.883c2.321,10.235 5.071,31.228 5.071,31.228c-17.349,-8.554 -37.758,-11.172 -56.845,-11.432c-28.491,-0.388 -59.514,4.696 -83.972,20.324c-14.241,9.101 -26.833,22.567 -37.25,35.632c-23.054,28.913 -36.825,64.214 -33.468,101.739c1.605,17.943 5.934,35.638 13.149,52.122c0.994,2.271 2.507,4.337 4.242,6.107c1.868,1.906 4.801,4.234 6.947,5.819c10.99,8.118 33.544,-10.305 26.4,-28.632l0,-0l0,-0.001Z" style="fill:#57f287;"/><path d="M143.442,284.655c-41.767,-101.514 62.75,-183.292 145.656,-140.958c-4.979,3.871 -9.673,7.558 -14.993,12.636c-2.876,2.746 -9.885,8.441 -11.355,12.01c-3.33,8.084 -1.115,15.09 4.944,20.774c2.305,2.162 5.071,3.972 8.353,4.177c2.296,0.143 5.149,0.396 7.395,-0.103c12.229,-2.717 20.953,-13.133 30.194,-20.78c8.085,-6.691 18.103,-14.88 26.753,-21.912c11.456,-9.313 8.837,-19.719 6.659,-32.383c-1.515,-8.808 -8.076,-44.713 -10.082,-53.251c-6.132,-26.097 -42.482,-13.774 -37.798,6.883c2.32,10.236 5.071,31.228 5.071,31.228c-17.349,-8.554 -37.759,-11.171 -56.845,-11.431c-28.492,-0.388 -59.515,4.695 -83.972,20.324c-14.242,9.1 -26.833,22.566 -37.25,35.631c-23.054,28.914 -36.825,64.215 -33.469,101.74c1.605,17.942 5.934,35.638 13.149,52.122c0.994,2.271 2.507,4.337 4.242,6.107c1.868,1.906 4.801,4.234 6.948,5.819c10.989,8.118 33.543,-10.305 26.399,-28.632l0.001,-0l-0,-0.001Z" style="fill:#5865f2;"/><path d="M130.39,272.125c-41.767,-101.513 62.75,-183.292 145.657,-140.958c-4.98,3.87 -9.674,7.557 -14.994,12.635c-2.876,2.746 -9.884,8.441 -11.355,12.011c-3.33,8.083 -1.114,15.09 4.944,20.774c2.305,2.162 5.071,3.972 8.353,4.176c2.296,0.143 5.149,0.397 7.395,-0.102c12.229,-2.718 20.953,-13.134 30.194,-20.781c8.086,-6.691 18.103,-14.88 26.753,-21.912c11.456,-9.312 8.837,-19.719 6.659,-32.383c-1.515,-8.808 -8.076,-44.713 -10.082,-53.25c-6.132,-26.098 -42.481,-13.774 -37.798,6.883c2.321,10.235 5.071,31.228 5.071,31.228c-17.349,-8.554 -37.759,-11.172 -56.845,-11.432c-28.491,-0.388 -59.514,4.696 -83.972,20.324c-14.242,9.101 -26.833,22.567 -37.25,35.632c-23.054,28.913 -36.825,64.214 -33.469,101.739c1.605,17.943 5.934,35.639 13.15,52.122c0.994,2.271 2.507,4.338 4.242,6.108c1.868,1.905 4.8,4.233 6.947,5.819c10.99,8.117 33.544,-10.306 26.4,-28.633l-0,0l-0,0Z" style="fill:#fff;"/></g><g><path d="M352.461,209.159c41.767,101.513 -62.75,183.292 -145.657,140.958c4.98,-3.871 9.674,-7.558 14.993,-12.636c2.877,-2.746 9.885,-8.441 11.356,-12.01c3.33,-8.084 1.114,-15.09 -4.944,-20.774c-2.305,-2.163 -5.071,-3.973 -8.353,-4.177c-2.296,-0.143 -5.15,-0.396 -7.395,0.103c-12.229,2.717 -20.953,13.133 -30.194,20.78c-8.086,6.691 -18.103,14.88 -26.753,21.912c-11.456,9.313 -8.837,19.719 -6.659,32.383c1.515,8.808 8.076,44.713 10.082,53.251c6.132,26.097 42.481,13.774 37.798,-6.883c-2.32,-10.236 -5.071,-31.228 -5.071,-31.228c17.349,8.554 37.759,11.171 56.845,11.431c28.491,0.388 59.514,-4.695 83.972,-20.324c14.242,-9.101 26.833,-22.567 37.25,-35.631c23.054,-28.914 36.825,-64.215 33.468,-101.74c-1.604,-17.942 -5.933,-35.638 -13.149,-52.122c-0.994,-2.27 -2.507,-4.337 -4.242,-6.107c-1.868,-1.906 -4.801,-4.234 -6.947,-5.819c-10.99,-8.117 -33.544,10.305 -26.4,28.632l0,0l-0,0.001Z" style="fill:#57f287;"/><path d="M327.392,186.178c41.766,101.514 -62.75,183.292 -145.657,140.958c4.98,-3.871 9.674,-7.557 14.993,-12.635c2.877,-2.746 9.885,-8.441 11.355,-12.011c3.33,-8.083 1.115,-15.09 -4.943,-20.774c-2.305,-2.162 -5.072,-3.972 -8.353,-4.176c-2.296,-0.143 -5.15,-0.397 -7.396,0.102c-12.228,2.718 -20.953,13.134 -30.193,20.78c-8.086,6.692 -18.104,14.88 -26.754,21.912c-11.455,9.313 -8.837,19.719 -6.659,32.383c1.515,8.809 8.077,44.713 10.083,53.251c6.131,26.097 42.481,13.774 37.798,-6.883c-2.321,-10.236 -5.071,-31.228 -5.071,-31.228c17.348,8.554 37.758,11.171 56.845,11.431c28.491,0.388 59.514,-4.695 83.972,-20.323c14.241,-9.101 26.833,-22.567 37.25,-35.632c23.054,-28.914 36.825,-64.214 33.468,-101.739c-1.605,-17.943 -5.934,-35.639 -13.149,-52.123c-0.994,-2.27 -2.507,-4.337 -4.242,-6.107c-1.868,-1.906 -4.801,-4.234 -6.947,-5.819c-10.99,-8.117 -33.544,10.305 -26.4,28.633l-0,-0l-0,0Z" style="fill:#5865f2;"/><path d="M340.443,198.708c41.767,101.514 -62.75,183.292 -145.656,140.959c4.979,-3.871 9.673,-7.558 14.993,-12.636c2.876,-2.746 9.884,-8.441 11.355,-12.01c3.33,-8.084 1.115,-15.09 -4.944,-20.774c-2.304,-2.163 -5.071,-3.973 -8.353,-4.177c-2.296,-0.143 -5.149,-0.396 -7.395,0.103c-12.229,2.717 -20.953,13.133 -30.194,20.78c-8.085,6.691 -18.103,14.88 -26.753,21.912c-11.456,9.313 -8.837,19.719 -6.659,32.383c1.515,8.808 8.076,44.713 10.083,53.251c6.131,26.097 42.481,13.774 37.797,-6.883c-2.32,-10.236 -5.071,-31.228 -5.071,-31.228c17.349,8.554 37.759,11.171 56.845,11.431c28.492,0.388 59.515,-4.695 83.972,-20.324c14.242,-9.1 26.833,-22.567 37.25,-35.631c23.054,-28.914 36.825,-64.215 33.469,-101.74c-1.605,-17.942 -5.934,-35.638 -13.149,-52.122c-0.994,-2.271 -2.507,-4.337 -4.242,-6.107c-1.868,-1.906 -4.801,-4.234 -6.948,-5.819c-10.989,-8.118 -33.543,10.305 -26.399,28.632l-0,0l-0.001,-0Z" style="fill:#fff;"/></g></g></svg>
