<svg id="svg" version="1.1" xmlns="http://www.w3.org/2000/svg" xmlns:xlink="http://www.w3.org/1999/xlink" width="400" height="400" viewBox="0, 0, 400,400"><g id="svgg"><path id="path0" d="M193.800 65.670 C 189.661 66.131,183.489 67.109,181.200 67.666 C 180.210 67.908,178.680 68.248,177.800 68.423 C 173.651 69.246,163.425 72.495,162.620 73.246 C 162.411 73.441,162.006 73.600,161.721 73.600 C 160.276 73.600,148.819 79.471,143.645 82.863 C 142.019 83.928,140.616 84.800,140.527 84.800 C 139.478 84.800,127.824 94.680,122.767 99.857 C 118.964 103.750,108.800 116.518,108.800 117.402 C 108.800 117.532,108.158 118.642,107.373 119.870 C 105.732 122.435,101.431 130.757,100.071 134.000 C 99.563 135.210,98.889 136.791,98.574 137.514 C 98.258 138.236,98.000 139.145,98.000 139.534 C 98.000 139.922,97.806 140.434,97.569 140.671 C 97.332 140.908,96.984 141.709,96.797 142.451 C 96.609 143.193,96.165 144.790,95.810 146.000 C 95.455 147.210,94.813 149.640,94.384 151.400 C 93.954 153.160,93.403 155.410,93.159 156.400 C 92.916 157.390,92.555 159.415,92.358 160.900 C 92.161 162.385,91.828 164.905,91.618 166.500 C 91.407 168.095,91.235 173.630,91.235 178.800 C 91.235 183.970,91.407 189.505,91.618 191.100 C 91.828 192.695,92.157 195.215,92.348 196.700 C 92.540 198.185,92.884 200.120,93.113 201.000 C 93.342 201.880,93.831 203.950,94.200 205.600 C 94.570 207.250,95.022 209.050,95.206 209.600 C 95.390 210.150,95.942 211.950,96.432 213.600 C 96.923 215.250,97.459 216.870,97.625 217.200 C 97.790 217.530,98.694 219.780,99.633 222.200 C 102.229 228.889,107.971 239.493,111.252 243.658 C 111.883 244.459,112.400 245.299,112.400 245.524 C 112.400 245.749,112.541 245.993,112.713 246.067 C 112.886 246.140,113.916 247.370,115.003 248.800 C 119.219 254.348,128.962 264.175,134.097 268.057 C 135.914 269.430,137.490 270.655,137.600 270.777 C 137.931 271.146,143.184 274.597,146.600 276.690 C 149.197 278.281,157.215 282.376,161.000 284.045 C 163.228 285.027,169.541 287.211,173.000 288.197 C 178.455 289.751,179.293 289.937,188.200 291.581 C 195.532 292.935,214.256 292.934,221.800 291.581 C 228.835 290.319,239.493 287.741,240.180 287.135 C 240.389 286.951,240.878 286.800,241.266 286.800 C 241.655 286.800,242.564 286.548,243.286 286.240 C 244.009 285.933,245.410 285.372,246.400 284.994 C 255.450 281.538,259.397 277.624,261.948 269.572 C 262.529 267.737,262.534 260.687,261.955 258.828 C 257.960 245.998,244.653 239.620,232.600 244.759 C 216.900 251.453,199.182 252.098,182.200 246.594 C 180.673 246.099,179.981 245.831,176.800 244.503 C 175.078 243.784,170.885 241.735,169.800 241.082 C 161.612 236.159,156.678 232.054,150.228 224.800 C 148.636 223.009,144.800 217.654,144.800 217.221 C 144.800 216.990,144.663 216.800,144.495 216.800 C 144.143 216.800,144.191 216.887,140.942 210.347 C 138.703 205.839,136.766 200.777,135.683 196.600 C 133.923 189.809,133.808 188.715,133.808 178.800 C 133.808 168.885,133.923 167.791,135.683 161.000 C 136.849 156.502,139.261 150.018,140.966 146.800 C 143.723 141.595,146.232 137.571,148.159 135.264 C 154.200 128.030,162.727 120.200,166.000 118.881 C 166.330 118.748,167.215 118.222,167.967 117.712 C 169.450 116.706,175.506 113.748,178.400 112.617 C 179.390 112.229,180.650 111.729,181.200 111.504 C 183.207 110.685,189.147 109.236,192.374 108.778 C 193.790 108.577,195.938 108.230,197.148 108.007 C 204.197 106.703,218.985 108.438,228.000 111.625 C 232.236 113.122,240.678 117.080,241.600 118.000 C 241.710 118.110,243.150 119.096,244.800 120.191 C 269.269 136.430,280.886 166.762,273.985 196.400 C 273.459 198.658,270.409 207.662,269.987 208.200 C 269.815 208.420,269.477 209.668,269.237 210.973 C 265.278 232.478,290.960 245.752,305.694 229.816 C 307.122 228.272,310.800 221.516,310.800 220.438 C 310.800 220.155,311.051 219.446,311.358 218.862 C 311.664 218.278,312.369 216.360,312.925 214.600 C 313.854 211.653,314.248 210.200,315.798 204.000 C 316.349 201.797,317.288 196.303,317.883 191.800 C 318.294 188.686,318.294 169.714,317.883 166.600 C 317.288 162.097,316.349 156.603,315.798 154.400 C 314.234 148.142,313.840 146.730,312.787 143.600 C 307.688 128.454,301.700 117.815,291.060 105.001 C 287.440 100.642,279.663 93.186,275.200 89.795 C 273.770 88.709,272.420 87.672,272.200 87.491 C 271.324 86.772,266.368 83.353,265.124 82.610 C 264.396 82.175,262.990 81.330,262.000 80.731 C 256.671 77.506,246.402 72.889,240.400 71.018 C 239.190 70.641,237.840 70.178,237.400 69.989 C 236.960 69.801,235.700 69.449,234.600 69.208 C 233.500 68.966,231.520 68.497,230.200 68.164 C 228.880 67.832,226.810 67.409,225.600 67.224 C 224.390 67.040,222.950 66.780,222.400 66.647 C 217.241 65.399,201.165 64.849,193.800 65.670 M300.000 252.400 C 299.670 252.613,298.909 252.791,298.308 252.794 C 295.341 252.811,287.575 257.055,285.000 260.067 C 278.808 267.310,276.225 277.904,278.871 285.200 C 283.146 296.987,291.822 303.357,303.600 303.357 C 315.061 303.357,323.428 297.472,327.994 286.200 C 328.324 285.385,328.951 282.338,329.407 279.331 C 329.855 276.375,328.140 268.841,326.326 265.800 C 325.932 265.140,325.441 264.218,325.234 263.751 C 324.847 262.876,321.042 258.873,319.104 257.301 C 316.704 255.355,313.047 253.783,307.754 252.423 C 305.700 251.895,300.803 251.881,300.000 252.400 " stroke="none" fill="#f9f2e4" fill-rule="evenodd"></path><path id="path1" d="M96.233 0.390 C 70.846 0.555,63.831 0.708,63.700 1.100 C 63.579 1.464,62.182 1.600,58.554 1.600 C 54.497 1.600,53.532 1.711,53.345 2.200 C 53.173 2.647,52.461 2.800,50.557 2.800 C 48.551 2.800,48.000 2.929,48.000 3.400 C 48.000 3.844,47.533 4.000,46.200 4.000 C 45.210 4.000,44.400 4.180,44.400 4.400 C 44.400 4.620,43.764 4.800,42.987 4.800 C 42.101 4.800,41.489 5.023,41.345 5.400 C 41.218 5.730,40.684 6.000,40.157 6.000 C 39.573 6.000,39.200 6.234,39.200 6.600 C 39.200 7.020,38.776 7.200,37.787 7.200 C 36.901 7.200,36.289 7.423,36.145 7.800 C 36.013 8.142,35.417 8.400,34.757 8.400 C 34.121 8.400,33.600 8.580,33.600 8.800 C 33.600 9.020,33.330 9.200,33.000 9.200 C 32.670 9.200,32.400 9.470,32.400 9.800 C 32.400 10.173,32.022 10.400,31.400 10.400 C 30.778 10.400,30.400 10.627,30.400 11.000 C 30.400 11.330,30.130 11.600,29.800 11.600 C 29.470 11.600,29.200 11.870,29.200 12.200 C 29.200 12.578,28.819 12.800,28.171 12.800 C 27.117 12.800,26.000 13.608,26.000 14.371 C 26.000 14.607,25.730 14.800,25.400 14.800 C 25.070 14.800,24.800 15.070,24.800 15.400 C 24.800 15.764,24.428 16.000,23.856 16.000 C 23.316 16.000,22.591 16.428,22.161 17.000 C 21.748 17.550,21.183 18.000,20.905 18.000 C 20.627 18.000,20.400 18.270,20.400 18.600 C 20.400 18.930,20.130 19.200,19.800 19.200 C 19.470 19.200,19.200 19.470,19.200 19.800 C 19.200 20.130,18.930 20.400,18.600 20.400 C 18.270 20.400,18.000 20.627,18.000 20.905 C 18.000 21.183,17.550 21.748,17.000 22.161 C 16.428 22.591,16.000 23.316,16.000 23.856 C 16.000 24.428,15.764 24.800,15.400 24.800 C 15.070 24.800,14.800 25.070,14.800 25.400 C 14.800 25.730,14.607 26.000,14.371 26.000 C 13.608 26.000,12.800 27.117,12.800 28.171 C 12.800 28.819,12.578 29.200,12.200 29.200 C 11.870 29.200,11.600 29.470,11.600 29.800 C 11.600 30.130,11.330 30.400,11.000 30.400 C 10.627 30.400,10.400 30.778,10.400 31.400 C 10.400 32.022,10.173 32.400,9.800 32.400 C 9.470 32.400,9.200 32.670,9.200 33.000 C 9.200 33.330,9.020 33.600,8.800 33.600 C 8.580 33.600,8.400 34.121,8.400 34.757 C 8.400 35.417,8.142 36.013,7.800 36.145 C 7.423 36.289,7.200 36.901,7.200 37.787 C 7.200 38.776,7.020 39.200,6.600 39.200 C 6.234 39.200,6.000 39.573,6.000 40.157 C 6.000 40.684,5.730 41.218,5.400 41.345 C 5.023 41.489,4.800 42.101,4.800 42.987 C 4.800 43.764,4.620 44.400,4.400 44.400 C 4.180 44.400,4.000 45.210,4.000 46.200 C 4.000 47.533,3.844 48.000,3.400 48.000 C 2.929 48.000,2.800 48.551,2.800 50.557 C 2.800 52.461,2.647 53.173,2.200 53.345 C 1.713 53.532,1.600 54.475,1.600 58.354 C 1.600 61.822,1.463 63.179,1.100 63.300 C 0.487 63.504,0.132 107.669,0.053 193.400 C -0.017 269.503,0.349 313.594,1.049 313.326 C 1.371 313.202,1.659 313.557,1.811 314.264 C 1.945 314.889,2.198 315.760,2.372 316.200 C 2.547 316.640,3.360 318.980,4.179 321.400 C 6.104 327.089,10.847 336.175,13.883 339.993 C 14.149 340.327,14.926 341.320,15.611 342.200 C 22.106 350.550,32.684 358.579,42.959 362.960 C 48.799 365.450,54.029 366.884,61.293 367.989 C 66.269 368.745,335.765 368.586,340.200 367.824 C 367.177 363.188,390.367 343.267,396.588 319.383 C 396.892 318.214,397.335 316.896,397.571 316.455 C 397.807 316.014,398.003 315.326,398.006 314.926 C 398.016 313.772,398.726 312.885,399.134 313.517 C 399.916 314.726,400.227 185.094,399.647 99.833 C 399.453 71.272,399.293 63.431,398.900 63.300 C 398.537 63.179,398.400 61.822,398.400 58.354 C 398.400 54.475,398.287 53.532,397.800 53.345 C 397.353 53.173,397.200 52.461,397.200 50.557 C 397.200 48.551,397.071 48.000,396.600 48.000 C 396.156 48.000,396.000 47.533,396.000 46.200 C 396.000 45.210,395.820 44.400,395.600 44.400 C 395.380 44.400,395.200 43.764,395.200 42.987 C 395.200 42.101,394.977 41.489,394.600 41.345 C 394.270 41.218,394.000 40.684,394.000 40.157 C 394.000 39.573,393.766 39.200,393.400 39.200 C 392.980 39.200,392.800 38.776,392.800 37.787 C 392.800 36.901,392.577 36.289,392.200 36.145 C 391.858 36.013,391.600 35.417,391.600 34.757 C 391.600 34.121,391.420 33.600,391.200 33.600 C 390.980 33.600,390.800 33.330,390.800 33.000 C 390.800 32.670,390.530 32.400,390.200 32.400 C 389.827 32.400,389.600 32.022,389.600 31.400 C 389.600 30.778,389.373 30.400,389.000 30.400 C 388.670 30.400,388.400 30.130,388.400 29.800 C 388.400 29.470,388.130 29.200,387.800 29.200 C 387.422 29.200,387.200 28.819,387.200 28.171 C 387.200 27.117,386.392 26.000,385.629 26.000 C 385.393 26.000,385.200 25.730,385.200 25.400 C 385.200 25.070,384.930 24.800,384.600 24.800 C 384.236 24.800,384.000 24.428,384.000 23.856 C 384.000 23.316,383.572 22.591,383.000 22.161 C 382.450 21.748,382.000 21.183,382.000 20.905 C 382.000 20.627,381.730 20.400,381.400 20.400 C 381.070 20.400,380.800 20.130,380.800 19.800 C 380.800 19.470,380.530 19.200,380.200 19.200 C 379.870 19.200,379.600 18.930,379.600 18.600 C 379.600 18.270,379.373 18.000,379.095 18.000 C 378.817 18.000,378.252 17.550,377.839 17.000 C 377.409 16.428,376.684 16.000,376.144 16.000 C 375.572 16.000,375.200 15.764,375.200 15.400 C 375.200 15.070,374.930 14.800,374.600 14.800 C 374.270 14.800,374.000 14.607,374.000 14.371 C 374.000 13.608,372.883 12.800,371.829 12.800 C 371.181 12.800,370.800 12.578,370.800 12.200 C 370.800 11.870,370.530 11.600,370.200 11.600 C 369.870 11.600,369.600 11.330,369.600 11.000 C 369.600 10.627,369.222 10.400,368.600 10.400 C 367.978 10.400,367.600 10.173,367.600 9.800 C 367.600 9.470,367.330 9.200,367.000 9.200 C 366.670 9.200,366.400 9.020,366.400 8.800 C 366.400 8.580,365.879 8.400,365.243 8.400 C 364.583 8.400,363.987 8.142,363.855 7.800 C 363.711 7.423,363.099 7.200,362.213 7.200 C 361.224 7.200,360.800 7.020,360.800 6.600 C 360.800 6.234,360.427 6.000,359.843 6.000 C 359.316 6.000,358.782 5.730,358.655 5.400 C 358.511 5.023,357.899 4.800,357.013 4.800 C 356.236 4.800,355.600 4.620,355.600 4.400 C 355.600 4.180,354.790 4.000,353.800 4.000 C 352.467 4.000,352.000 3.844,352.000 3.400 C 352.000 2.929,351.449 2.800,349.443 2.800 C 347.539 2.800,346.827 2.647,346.655 2.200 C 346.468 1.711,345.503 1.600,341.446 1.600 C 337.818 1.600,336.421 1.464,336.300 1.100 C 336.001 0.202,191.139 -0.226,96.233 0.390 M216.862 65.406 C 219.798 65.739,223.010 66.183,224.000 66.391 C 224.990 66.600,227.150 67.052,228.800 67.395 C 233.512 68.375,242.159 70.880,244.600 71.973 C 245.040 72.170,246.827 72.905,248.572 73.607 C 250.316 74.309,252.026 75.035,252.372 75.220 C 252.717 75.406,254.669 76.379,256.710 77.382 C 277.155 87.437,297.326 107.868,307.079 128.400 C 309.926 134.394,310.337 135.337,311.608 138.800 C 313.175 143.068,314.086 145.886,314.970 149.200 C 315.351 150.630,315.838 152.430,316.051 153.200 C 317.820 159.592,318.594 167.504,318.594 179.200 C 318.594 190.896,317.820 198.808,316.051 205.200 C 315.838 205.970,315.353 207.770,314.973 209.200 C 309.602 229.420,302.664 237.213,290.049 237.195 C 285.505 237.189,278.000 234.909,278.000 233.535 C 278.000 233.351,277.754 233.200,277.453 233.200 C 276.341 233.200,271.912 227.923,270.597 225.031 C 267.497 218.216,267.503 212.886,270.619 205.400 C 270.894 204.740,271.430 203.210,271.810 202.000 C 272.190 200.790,272.670 199.360,272.877 198.823 C 275.818 191.183,276.334 174.668,273.966 164.000 C 270.339 147.658,260.233 131.937,247.200 122.359 C 239.650 116.810,225.101 109.994,220.824 110.001 C 220.481 110.002,219.030 109.747,217.600 109.435 C 204.332 106.539,188.862 108.330,175.600 114.298 C 174.390 114.843,173.040 115.443,172.600 115.633 C 172.160 115.822,170.900 116.520,169.800 117.183 C 168.700 117.847,167.530 118.512,167.200 118.661 C 166.870 118.811,165.944 119.443,165.142 120.066 C 164.341 120.690,163.501 121.200,163.276 121.200 C 163.051 121.200,162.807 121.341,162.733 121.513 C 162.660 121.686,161.467 122.692,160.083 123.750 C 155.344 127.371,145.200 138.563,145.200 140.172 C 145.200 140.289,144.513 141.514,143.674 142.893 C 142.298 145.155,140.837 148.056,139.088 152.000 C 137.582 155.397,135.784 161.851,134.743 167.600 C 134.009 171.655,134.013 185.982,134.750 190.000 C 139.342 215.042,155.953 236.081,177.722 244.425 C 178.865 244.864,180.160 245.384,180.600 245.582 C 181.417 245.950,183.675 246.639,187.600 247.716 C 196.331 250.113,213.771 250.129,222.200 247.748 C 226.655 246.490,228.658 245.871,229.800 245.399 C 237.312 242.296,242.892 241.731,247.827 243.574 C 268.079 251.135,268.187 276.989,248.000 284.797 C 246.130 285.520,244.240 286.266,243.800 286.455 C 242.280 287.107,236.588 288.808,233.200 289.623 C 231.330 290.073,229.170 290.613,228.400 290.823 C 216.486 294.067,193.574 293.773,178.800 290.187 C 177.370 289.840,175.570 289.406,174.800 289.223 C 172.440 288.662,164.949 286.080,161.278 284.564 C 140.619 276.028,122.471 261.174,110.101 242.676 C 105.412 235.666,100.221 225.882,98.571 220.946 C 98.213 219.876,97.682 218.460,97.390 217.800 C 90.432 202.058,88.638 172.927,93.413 153.200 C 93.759 151.770,94.201 149.880,94.396 149.000 C 94.820 147.087,96.696 141.252,97.165 140.387 C 97.349 140.050,97.625 139.197,97.780 138.491 C 97.935 137.786,98.228 137.106,98.431 136.981 C 98.634 136.855,98.800 136.504,98.800 136.200 C 98.800 135.896,99.520 134.096,100.400 132.200 C 101.280 130.304,102.000 128.696,102.000 128.628 C 102.000 128.559,102.925 126.815,104.055 124.751 C 113.100 108.239,124.893 95.105,140.111 84.596 C 142.952 82.634,144.416 81.694,145.200 81.330 C 145.530 81.177,146.880 80.399,148.200 79.601 C 150.344 78.306,156.959 75.013,159.600 73.927 C 160.150 73.701,161.140 73.268,161.800 72.966 C 166.047 71.019,177.824 67.693,185.000 66.415 C 194.201 64.775,207.573 64.352,216.862 65.406 M309.588 252.390 C 339.603 260.184,334.531 303.684,303.600 303.741 C 280.221 303.784,268.738 276.228,285.200 259.587 C 291.900 252.814,300.944 250.145,309.588 252.390 M399.309 326.800 C 399.309 327.790,399.387 328.195,399.482 327.700 C 399.578 327.205,399.578 326.395,399.482 325.900 C 399.387 325.405,399.309 325.810,399.309 326.800 M399.301 332.200 C 399.305 333.080,399.387 333.393,399.483 332.895 C 399.579 332.398,399.575 331.678,399.475 331.295 C 399.375 330.913,399.296 331.320,399.301 332.200 M325.705 399.487 C 326.314 399.579,327.214 399.577,327.705 399.482 C 328.197 399.387,327.700 399.311,326.600 399.314 C 325.500 399.317,325.097 399.395,325.705 399.487 M331.505 399.483 C 332.002 399.579,332.722 399.575,333.105 399.475 C 333.487 399.375,333.080 399.296,332.200 399.301 C 331.320 399.305,331.007 399.387,331.505 399.483 " stroke="none" fill="#431343" fill-rule="evenodd"></path><path id="path2" d="M398.474 317.143 C 398.525 317.804,398.709 318.256,398.883 318.149 C 399.338 317.867,399.274 316.493,398.791 316.195 C 398.542 316.040,398.418 316.409,398.474 317.143 M200.000 384.507 L 200.000 400.015 235.500 399.917 C 274.513 399.809,299.413 399.522,299.758 399.176 C 299.881 399.053,299.994 392.303,300.010 384.176 L 300.038 369.400 250.019 369.200 L 200.000 369.000 200.000 384.507 " stroke="none" fill="#2b9da5" fill-rule="evenodd"></path><path id="path3" d="M191.800 65.432 C 187.067 65.993,184.576 66.427,179.108 67.643 C 175.655 68.411,172.331 69.499,175.000 68.987 C 177.505 68.507,179.461 68.090,181.200 67.666 C 192.669 64.872,214.234 64.439,223.200 66.823 C 223.970 67.028,225.230 67.172,226.000 67.143 C 227.024 67.105,227.132 67.049,226.400 66.936 C 225.850 66.851,224.680 66.605,223.800 66.390 C 217.619 64.881,200.721 64.374,191.800 65.432 M228.000 67.576 C 228.330 67.769,229.500 68.113,230.600 68.341 C 234.644 69.176,236.619 69.655,237.400 69.989 C 237.840 70.178,239.190 70.641,240.400 71.018 C 243.172 71.882,245.418 72.723,249.400 74.389 C 251.352 75.205,260.370 79.744,262.000 80.731 C 262.990 81.330,264.396 82.175,265.124 82.610 C 266.368 83.353,271.324 86.772,272.200 87.491 C 272.420 87.672,273.770 88.709,275.200 89.795 C 288.190 99.664,300.152 114.795,308.011 131.299 C 308.299 131.904,308.612 132.321,308.707 132.226 C 309.326 131.607,301.400 117.781,296.990 111.787 C 286.523 97.561,271.298 84.557,256.710 77.382 C 254.669 76.379,252.717 75.406,252.372 75.220 C 252.026 75.035,250.316 74.309,248.572 73.607 C 246.827 72.905,245.040 72.170,244.600 71.973 C 243.438 71.453,236.995 69.417,234.200 68.687 C 232.880 68.342,231.059 67.867,230.154 67.630 C 228.096 67.093,227.134 67.068,228.000 67.576 M167.400 70.940 C 162.454 72.652,160.460 73.565,161.620 73.588 C 161.961 73.595,162.411 73.437,162.620 73.239 C 162.829 73.040,165.430 72.055,168.400 71.051 C 171.370 70.046,173.440 69.236,173.000 69.252 C 172.560 69.267,170.040 70.027,167.400 70.940 M159.200 74.005 C 158.870 74.201,157.895 74.675,157.033 75.059 C 156.171 75.442,155.631 75.808,155.833 75.872 C 156.035 75.936,157.280 75.460,158.600 74.814 C 159.920 74.168,160.730 73.641,160.400 73.643 C 160.070 73.645,159.530 73.808,159.200 74.005 M152.067 77.417 C 150.674 78.162,148.694 79.285,147.667 79.912 C 146.640 80.539,145.530 81.177,145.200 81.330 C 143.842 81.960,139.013 85.266,135.200 88.176 C 125.596 95.504,115.353 106.388,109.862 115.100 C 107.887 118.232,109.070 116.846,113.448 110.900 C 118.372 104.210,125.394 96.760,131.600 91.641 C 135.736 88.229,140.211 84.800,140.527 84.800 C 140.616 84.800,142.019 83.926,143.645 82.857 C 145.270 81.788,148.400 79.962,150.600 78.799 C 152.800 77.636,154.771 76.531,154.980 76.342 C 155.756 75.643,154.553 76.087,152.067 77.417 M196.000 108.231 L 193.400 108.764 196.400 108.482 C 200.228 108.122,208.916 108.130,212.800 108.497 L 215.800 108.781 212.800 108.221 C 209.022 107.516,199.460 107.521,196.000 108.231 M189.600 109.161 C 189.270 109.346,188.280 109.621,187.400 109.773 C 185.685 110.068,183.902 110.576,181.500 111.452 C 174.627 113.961,166.350 118.083,166.960 118.693 C 167.089 118.823,167.511 118.675,167.898 118.364 C 168.740 117.687,169.985 116.972,172.400 115.776 C 178.110 112.950,182.651 111.373,190.600 109.458 C 192.626 108.969,192.782 108.875,191.600 108.852 C 190.830 108.837,189.930 108.976,189.600 109.161 M217.800 109.383 C 218.900 109.703,220.171 109.973,220.624 109.982 C 228.135 110.143,245.430 119.806,254.630 128.982 C 272.448 146.753,279.106 170.234,273.639 196.023 C 273.427 197.026,273.084 198.286,272.877 198.823 C 272.670 199.360,272.190 200.790,271.810 202.000 C 271.430 203.210,270.894 204.740,270.619 205.400 C 267.503 212.886,267.497 218.216,270.597 225.031 C 271.912 227.923,276.341 233.200,277.453 233.200 C 277.754 233.200,278.000 233.351,278.000 233.535 C 278.000 234.909,285.505 237.189,290.049 237.195 C 302.659 237.213,309.661 229.346,314.967 209.200 C 315.344 207.770,315.812 206.060,316.008 205.400 C 316.514 203.694,317.276 199.317,317.435 197.200 C 317.514 196.147,317.316 196.729,316.959 198.600 C 316.376 201.645,316.119 202.755,314.591 208.800 C 313.657 212.497,312.012 217.615,311.358 218.862 C 311.051 219.446,310.800 220.155,310.800 220.438 C 310.800 221.516,307.122 228.272,305.694 229.816 C 290.960 245.752,265.278 232.478,269.237 210.973 C 269.477 209.668,269.815 208.420,269.987 208.200 C 270.409 207.662,273.459 198.658,273.985 196.400 C 280.886 166.762,269.269 136.430,244.800 120.191 C 243.150 119.096,241.710 118.110,241.600 118.000 C 240.930 117.331,234.000 113.950,230.200 112.438 C 226.414 110.931,220.153 109.230,217.400 108.959 C 215.838 108.805,215.847 108.815,217.800 109.383 M107.321 119.100 C 106.162 120.915,102.000 128.367,102.000 128.628 C 102.000 128.696,101.280 130.304,100.400 132.200 C 99.520 134.096,98.800 135.796,98.800 135.978 C 98.800 136.160,98.531 136.824,98.202 137.454 C 97.874 138.084,97.604 138.904,97.602 139.276 C 97.601 139.648,97.420 140.064,97.200 140.200 C 96.980 140.336,96.800 140.741,96.800 141.100 C 96.800 142.026,97.970 140.463,97.987 139.514 C 97.994 139.136,98.258 138.236,98.574 137.514 C 98.889 136.791,99.563 135.210,100.071 134.000 C 101.443 130.729,105.737 122.426,107.406 119.817 C 108.210 118.561,108.792 117.459,108.701 117.367 C 108.609 117.276,107.988 118.056,107.321 119.100 M162.668 121.183 C 156.894 125.537,153.665 128.670,148.159 135.264 C 146.232 137.571,143.723 141.595,140.966 146.800 C 139.745 149.104,138.390 152.434,137.221 156.000 C 135.257 161.990,135.199 162.202,135.226 163.228 C 135.241 163.763,135.515 163.210,135.836 162.000 C 136.684 158.805,138.370 153.619,139.088 152.000 C 140.837 148.056,142.298 145.155,143.674 142.893 C 144.513 141.514,145.200 140.289,145.200 140.172 C 145.200 139.871,149.522 134.040,150.769 132.658 C 153.619 129.499,157.833 125.469,160.083 123.750 C 161.467 122.692,162.660 121.686,162.733 121.513 C 162.807 121.341,163.077 121.195,163.333 121.189 C 163.908 121.176,166.758 118.822,166.200 118.821 C 165.980 118.821,164.391 119.884,162.668 121.183 M308.800 132.946 C 308.800 133.115,308.996 133.620,309.236 134.068 C 310.256 135.973,313.583 145.627,314.590 149.600 C 316.097 155.548,316.375 156.747,316.959 159.800 C 317.316 161.671,317.514 162.253,317.435 161.200 C 317.276 159.083,316.514 154.706,316.008 153.000 C 315.812 152.340,315.342 150.630,314.964 149.200 C 313.141 142.310,308.800 130.862,308.800 132.946 M95.592 144.892 C 95.084 146.491,94.528 148.430,94.356 149.200 C 94.184 149.970,93.759 151.770,93.410 153.200 C 92.515 156.870,92.163 159.833,92.958 157.000 C 93.267 155.900,93.824 153.650,94.196 152.000 C 94.568 150.350,95.021 148.550,95.204 148.000 C 96.217 144.949,96.891 142.357,96.716 142.183 C 96.606 142.073,96.101 143.292,95.592 144.892 M91.661 162.600 C 91.365 164.580,91.203 166.740,91.301 167.400 C 91.444 168.358,91.492 168.253,91.540 166.877 C 91.573 165.930,91.794 164.385,92.030 163.445 C 92.267 162.505,92.402 161.120,92.330 160.368 C 92.240 159.421,92.034 160.109,91.661 162.600 M317.900 166.000 C 318.049 167.650,318.171 173.590,318.171 179.200 C 318.171 184.810,318.049 190.750,317.900 192.400 L 317.629 195.400 318.185 192.200 C 318.556 190.059,318.740 185.757,318.740 179.200 C 318.740 172.643,318.556 168.341,318.185 166.200 L 317.629 163.000 317.900 166.000 M134.385 166.800 C 133.526 170.616,133.642 188.586,134.544 191.400 C 135.178 193.378,135.183 193.382,135.006 191.800 C 134.047 183.240,133.935 181.129,134.143 175.523 C 134.272 172.071,134.579 168.444,134.826 167.464 C 135.072 166.484,135.206 165.348,135.122 164.941 C 135.039 164.533,134.707 165.370,134.385 166.800 M90.659 172.660 C 90.335 176.491,90.394 182.651,90.785 185.800 C 90.984 187.404,91.102 185.117,91.141 178.900 C 91.203 169.118,91.086 167.605,90.659 172.660 M91.433 191.800 C 91.530 193.340,91.778 195.500,91.983 196.600 C 92.459 199.142,92.148 194.866,91.591 191.200 C 91.269 189.078,91.263 189.099,91.433 191.800 M135.232 194.372 C 135.215 194.906,135.374 195.896,135.588 196.572 C 137.559 202.822,138.839 206.114,140.942 210.347 C 144.191 216.887,144.143 216.800,144.495 216.800 C 144.663 216.800,144.800 216.990,144.800 217.221 C 144.800 217.654,148.636 223.009,150.228 224.800 C 156.678 232.054,161.612 236.159,169.800 241.082 C 172.880 242.935,179.738 245.885,183.600 247.018 C 184.810 247.374,186.213 247.830,186.719 248.032 C 187.224 248.234,188.034 248.391,188.519 248.381 C 189.483 248.360,187.969 247.808,183.600 246.586 C 182.170 246.187,180.820 245.742,180.600 245.599 C 180.380 245.455,179.300 245.011,178.200 244.612 C 165.692 240.070,151.770 228.216,144.347 215.788 C 140.082 208.649,138.329 204.470,135.873 195.600 C 135.520 194.322,135.251 193.807,135.232 194.372 M92.432 199.484 C 92.370 201.200,96.030 214.723,97.390 217.800 C 97.682 218.460,98.213 219.876,98.571 220.946 C 100.221 225.882,105.412 235.666,110.101 242.676 C 124.442 264.121,146.228 280.373,170.800 287.956 C 177.375 289.985,177.989 290.145,178.242 289.891 C 178.373 289.760,177.698 289.456,176.740 289.216 C 168.657 287.190,163.415 285.250,155.000 281.171 C 152.140 279.785,148.360 277.768,146.600 276.690 C 143.184 274.597,137.931 271.146,137.600 270.777 C 137.490 270.655,135.914 269.430,134.097 268.057 C 128.962 264.175,119.219 254.348,115.003 248.800 C 113.916 247.370,112.886 246.140,112.713 246.067 C 112.541 245.993,112.400 245.749,112.400 245.524 C 112.400 245.299,111.883 244.459,111.252 243.658 C 107.971 239.493,102.229 228.889,99.633 222.200 C 98.694 219.780,97.790 217.530,97.625 217.200 C 97.459 216.870,96.923 215.250,96.432 213.600 C 95.942 211.950,95.390 210.150,95.206 209.600 C 95.022 209.050,94.568 207.250,94.196 205.600 C 93.099 200.733,92.467 198.540,92.432 199.484 M240.500 242.676 C 240.885 242.776,241.515 242.776,241.900 242.676 C 242.285 242.575,241.970 242.493,241.200 242.493 C 240.430 242.493,240.115 242.575,240.500 242.676 M233.200 244.044 C 231.550 244.687,229.840 245.369,229.400 245.560 C 228.960 245.751,227.610 246.194,226.400 246.545 C 221.954 247.833,220.595 248.337,221.481 248.368 C 221.966 248.386,222.776 248.234,223.281 248.032 C 223.787 247.830,225.190 247.374,226.400 247.018 C 228.531 246.393,231.169 245.428,232.400 244.823 C 233.238 244.412,237.195 243.252,238.400 243.065 C 238.959 242.978,238.694 242.901,237.800 242.892 C 236.920 242.882,234.850 243.401,233.200 244.044 M244.000 243.065 C 251.198 244.184,257.533 248.948,260.802 255.699 C 261.095 256.304,261.424 256.709,261.534 256.599 C 261.975 256.158,259.265 251.780,257.200 249.600 C 253.773 245.982,247.618 242.732,244.424 242.854 C 243.398 242.894,243.279 242.952,244.000 243.065 M191.800 248.980 C 198.946 250.706,214.015 250.623,219.000 248.831 C 220.139 248.422,220.118 248.411,218.600 248.624 C 213.040 249.405,210.724 249.565,205.000 249.565 C 201.480 249.565,197.340 249.400,195.800 249.199 C 189.447 248.368,189.216 248.356,191.800 248.980 M297.485 252.396 C 287.646 255.018,277.799 265.458,278.052 273.000 C 278.092 274.194,278.094 274.193,278.416 272.800 C 279.179 269.497,279.564 268.276,279.969 267.871 C 280.206 267.634,280.406 267.161,280.414 266.820 C 280.429 266.148,282.199 263.463,284.354 260.842 C 287.288 257.274,293.407 253.684,298.200 252.721 C 304.589 251.436,309.622 252.156,315.683 255.222 C 318.945 256.871,324.310 261.663,325.234 263.751 C 325.441 264.218,325.932 265.140,326.326 265.800 C 328.140 268.841,329.855 276.375,329.407 279.331 C 328.577 284.802,328.378 285.492,326.424 289.654 C 317.386 308.907,287.891 307.607,279.837 287.600 C 278.494 284.262,278.400 283.965,278.354 282.881 C 278.320 282.089,278.255 282.005,278.111 282.566 C 277.653 284.362,280.464 290.721,283.254 294.200 C 294.601 308.351,317.068 306.778,326.116 291.200 C 337.650 271.342,319.368 246.564,297.485 252.396 M261.837 258.200 C 262.371 260.533,262.468 267.770,261.986 269.400 C 259.629 277.385,255.495 281.521,246.400 284.994 C 245.410 285.372,244.009 285.933,243.286 286.240 C 242.564 286.548,241.655 286.800,241.266 286.800 C 240.878 286.800,240.389 286.951,240.180 287.135 C 239.760 287.506,231.885 289.576,227.200 290.548 C 224.621 291.083,222.210 291.485,217.600 292.147 C 216.956 292.240,217.134 292.310,218.100 292.346 C 219.661 292.402,225.970 291.465,228.400 290.816 C 229.170 290.610,231.330 290.073,233.200 289.623 C 236.588 288.808,242.280 287.107,243.800 286.455 C 244.240 286.266,246.130 285.520,248.000 284.797 C 255.421 281.926,259.809 277.473,262.184 270.400 C 263.025 267.896,263.023 260.176,262.181 258.346 C 261.573 257.023,261.567 257.021,261.837 258.200 M277.744 278.000 C 277.744 280.090,277.812 280.945,277.894 279.900 C 277.976 278.855,277.976 277.145,277.894 276.100 C 277.812 275.055,277.744 275.910,277.744 278.000 M180.000 290.445 C 182.662 291.136,190.458 292.400,191.727 292.347 C 193.134 292.287,192.297 292.117,186.400 291.260 C 184.750 291.020,182.771 290.639,182.003 290.412 C 181.234 290.185,180.154 290.018,179.603 290.041 C 178.774 290.075,178.843 290.145,180.000 290.445 M196.200 292.857 C 197.520 292.998,201.480 293.113,205.000 293.113 C 208.520 293.113,212.480 292.998,213.800 292.857 C 215.120 292.715,211.160 292.600,205.000 292.600 C 198.840 292.600,194.880 292.715,196.200 292.857 M0.565 313.748 C 0.103 314.950,0.622 336.141,1.117 336.306 C 1.458 336.419,1.600 337.858,1.600 341.205 C 1.600 344.883,1.734 346.077,2.200 346.543 C 2.602 346.944,2.800 347.946,2.800 349.571 C 2.800 351.463,2.933 352.000,3.400 352.000 C 3.844 352.000,4.000 352.467,4.000 353.800 C 4.000 354.790,4.180 355.600,4.400 355.600 C 4.620 355.600,4.800 356.236,4.800 357.013 C 4.800 357.899,5.023 358.511,5.400 358.655 C 5.730 358.782,6.000 359.316,6.000 359.843 C 6.000 360.427,6.234 360.800,6.600 360.800 C 7.020 360.800,7.200 361.224,7.200 362.213 C 7.200 363.099,7.423 363.711,7.800 363.855 C 8.142 363.987,8.400 364.583,8.400 365.243 C 8.400 365.879,8.580 366.400,8.800 366.400 C 9.020 366.400,9.200 366.670,9.200 367.000 C 9.200 367.330,9.470 367.600,9.800 367.600 C 10.173 367.600,10.400 367.978,10.400 368.600 C 10.400 369.222,10.627 369.600,11.000 369.600 C 11.330 369.600,11.600 369.870,11.600 370.200 C 11.600 370.530,11.870 370.800,12.200 370.800 C 12.578 370.800,12.800 371.181,12.800 371.829 C 12.800 372.883,13.608 374.000,14.371 374.000 C 14.607 374.000,14.800 374.270,14.800 374.600 C 14.800 374.930,15.058 375.200,15.373 375.200 C 15.702 375.200,16.001 375.670,16.073 376.300 C 16.145 376.919,16.419 377.356,16.700 377.300 C 16.975 377.245,17.200 377.470,17.200 377.800 C 17.200 378.130,17.380 378.400,17.600 378.400 C 17.820 378.400,18.000 378.670,18.000 379.000 C 18.000 379.330,18.270 379.600,18.600 379.600 C 18.930 379.600,19.200 379.870,19.200 380.200 C 19.200 380.530,19.470 380.800,19.800 380.800 C 20.130 380.800,20.400 381.070,20.400 381.400 C 20.400 381.730,20.627 382.000,20.905 382.000 C 21.183 382.000,21.748 382.450,22.161 383.000 C 22.591 383.572,23.316 384.000,23.856 384.000 C 24.428 384.000,24.800 384.236,24.800 384.600 C 24.800 384.930,24.989 385.200,25.219 385.200 C 25.450 385.200,26.055 385.650,26.565 386.200 C 27.075 386.750,27.876 387.200,28.346 387.200 C 28.838 387.200,29.200 387.454,29.200 387.800 C 29.200 388.130,29.451 388.400,29.757 388.400 C 30.064 388.400,30.418 388.670,30.545 389.000 C 30.671 389.330,31.141 389.600,31.587 389.600 C 32.043 389.600,32.400 389.864,32.400 390.200 C 32.400 390.530,32.670 390.800,33.000 390.800 C 33.330 390.800,33.600 390.980,33.600 391.200 C 33.600 391.420,34.121 391.600,34.757 391.600 C 35.417 391.600,36.013 391.858,36.145 392.200 C 36.289 392.577,36.901 392.800,37.787 392.800 C 38.776 392.800,39.200 392.980,39.200 393.400 C 39.200 393.766,39.573 394.000,40.157 394.000 C 40.684 394.000,41.218 394.270,41.345 394.600 C 41.489 394.977,42.101 395.200,42.987 395.200 C 43.764 395.200,44.400 395.380,44.400 395.600 C 44.400 395.820,45.210 396.000,46.200 396.000 C 47.533 396.000,48.000 396.156,48.000 396.600 C 48.000 397.067,48.537 397.200,50.429 397.200 C 52.054 397.200,53.056 397.398,53.457 397.800 C 53.923 398.266,55.117 398.400,58.795 398.400 C 61.821 398.400,63.585 398.556,63.677 398.830 C 63.883 399.449,66.674 399.487,136.905 399.820 L 200.009 400.120 199.905 384.360 L 199.800 368.600 130.200 368.394 C 73.649 368.226,60.150 368.086,58.200 367.645 C 39.917 363.514,25.483 354.890,15.611 342.200 C 14.926 341.320,14.149 340.327,13.883 339.993 C 10.847 336.175,6.104 327.089,4.179 321.400 C 3.360 318.980,2.547 316.640,2.372 316.200 C 2.198 315.760,1.949 314.905,1.820 314.300 C 1.570 313.129,0.913 312.840,0.565 313.748 " stroke="none" fill="#d3556a" fill-rule="evenodd"></path><path id="path4" d="M398.180 314.300 C 398.051 314.905,397.758 315.850,397.530 316.400 C 397.301 316.950,396.871 318.324,396.574 319.454 C 391.416 339.070,373.080 357.774,352.000 364.923 C 340.717 368.750,341.195 368.731,264.100 368.486 C 216.412 368.335,200.400 368.399,200.400 368.742 C 200.400 369.084,213.051 369.200,250.133 369.200 C 277.487 369.200,299.942 369.275,300.033 369.366 C 300.659 369.991,299.937 399.158,299.290 399.352 C 298.911 399.465,306.780 399.507,316.779 399.443 C 330.132 399.359,334.998 399.205,335.112 398.864 C 335.219 398.543,336.908 398.400,340.605 398.400 C 344.816 398.400,346.069 398.273,346.543 397.800 C 346.944 397.398,347.946 397.200,349.571 397.200 C 351.463 397.200,352.000 397.067,352.000 396.600 C 352.000 396.156,352.467 396.000,353.800 396.000 C 354.790 396.000,355.600 395.820,355.600 395.600 C 355.600 395.380,356.236 395.200,357.013 395.200 C 357.899 395.200,358.511 394.977,358.655 394.600 C 358.782 394.270,359.316 394.000,359.843 394.000 C 360.427 394.000,360.800 393.766,360.800 393.400 C 360.800 392.981,361.222 392.800,362.200 392.800 C 363.107 392.800,363.565 392.624,363.500 392.300 C 363.439 391.996,363.941 391.749,364.783 391.668 C 365.607 391.590,366.530 391.145,367.064 390.568 C 367.558 390.036,368.330 389.600,368.781 389.600 C 369.242 389.600,369.600 389.338,369.600 389.000 C 369.600 388.670,369.870 388.400,370.200 388.400 C 370.530 388.400,370.800 388.130,370.800 387.800 C 370.800 387.431,371.175 387.200,371.771 387.200 C 372.330 387.200,373.075 386.776,373.529 386.200 C 373.961 385.650,374.514 385.200,374.758 385.200 C 375.001 385.200,375.200 384.953,375.200 384.650 C 375.200 384.348,375.752 383.990,376.427 383.855 C 377.108 383.718,377.542 383.430,377.403 383.205 C 377.265 382.982,377.343 382.800,377.576 382.800 C 377.809 382.800,378.720 382.080,379.600 381.200 C 380.480 380.320,381.391 379.600,381.624 379.600 C 381.857 379.600,381.935 379.419,381.798 379.197 C 381.661 378.976,381.831 378.686,382.175 378.554 C 382.519 378.422,382.800 378.053,382.800 377.734 C 382.800 377.414,382.982 377.265,383.205 377.403 C 383.430 377.542,383.718 377.108,383.855 376.427 C 383.990 375.752,384.348 375.200,384.650 375.200 C 384.953 375.200,385.200 375.001,385.200 374.758 C 385.200 374.514,385.650 373.961,386.200 373.529 C 386.776 373.075,387.200 372.330,387.200 371.771 C 387.200 371.175,387.431 370.800,387.800 370.800 C 388.130 370.800,388.400 370.530,388.400 370.200 C 388.400 369.870,388.670 369.600,389.000 369.600 C 389.338 369.600,389.600 369.242,389.600 368.781 C 389.600 368.330,390.050 367.545,390.600 367.035 C 391.150 366.525,391.600 365.711,391.600 365.226 C 391.600 364.740,391.870 364.073,392.200 363.743 C 392.530 363.413,392.800 362.616,392.800 361.971 C 392.800 361.197,393.003 360.800,393.400 360.800 C 393.766 360.800,394.000 360.427,394.000 359.843 C 394.000 359.316,394.270 358.782,394.600 358.655 C 394.977 358.511,395.200 357.899,395.200 357.013 C 395.200 356.236,395.380 355.600,395.600 355.600 C 395.820 355.600,396.000 354.790,396.000 353.800 C 396.000 352.467,396.156 352.000,396.600 352.000 C 397.067 352.000,397.200 351.463,397.200 349.571 C 397.200 347.946,397.398 346.944,397.800 346.543 C 398.273 346.069,398.400 344.816,398.400 340.605 C 398.400 337.303,398.557 335.214,398.811 335.130 C 399.274 334.975,399.842 315.817,399.432 314.186 C 399.103 312.876,398.472 312.934,398.180 314.300 M399.200 317.200 C 399.200 318.471,398.572 318.422,398.474 317.143 C 398.418 316.409,398.542 316.040,398.791 316.195 C 399.016 316.334,399.200 316.786,399.200 317.200 " stroke="none" fill="#2b74ad" fill-rule="evenodd"></path></g></svg>