<svg id="svg" version="1.1" xmlns="http://www.w3.org/2000/svg" xmlns:xlink="http://www.w3.org/1999/xlink" width="400" height="400" viewBox="0, 0, 400,400"><g id="svgg"><path id="path0" d="M194.531 105.338 C 148.237 107.820,111.288 138.212,102.574 180.975 C 92.884 228.528,119.056 274.412,164.844 290.145 C 191.865 299.430,224.369 296.997,244.138 284.208 C 246.885 282.431,246.940 282.415,247.586 283.175 C 247.947 283.600,249.998 285.977,252.144 288.458 L 256.046 292.969 278.223 292.969 L 300.399 292.969 287.407 278.478 C 280.261 270.509,274.375 263.873,274.328 263.732 C 274.281 263.592,275.572 261.895,277.196 259.961 C 300.378 232.364,305.132 192.574,289.235 159.180 C 274.467 128.156,243.352 107.975,206.445 105.485 C 200.810 105.105,199.232 105.086,194.531 105.338 M211.432 143.347 C 240.825 149.108,259.861 174.772,257.801 205.859 C 257.084 216.683,254.637 224.321,249.302 232.390 L 247.128 235.679 245.450 233.757 C 244.527 232.701,239.944 227.407,235.265 221.994 L 226.758 212.151 204.550 212.130 L 182.341 212.109 184.823 214.904 C 207.349 240.274,219.915 254.543,219.918 254.757 C 219.920 254.903,218.911 255.404,217.676 255.871 C 191.380 265.807,159.222 252.757,147.297 227.309 C 126.170 182.226,163.104 133.874,211.432 143.347 " stroke="none" fill="#fbfbfb" fill-rule="evenodd"></path><path id="path1" d="M0.000 200.000 L 0.000 400.000 200.000 400.000 L 400.000 400.000 400.000 200.000 L 400.000 0.000 200.000 0.000 L 0.000 0.000 0.000 200.000 M215.234 106.044 C 248.654 111.299,275.498 130.427,289.256 158.789 C 305.176 191.607,300.895 231.334,278.486 258.732 C 277.106 260.420,275.636 262.220,275.220 262.731 C 274.471 263.654,274.471 263.670,275.265 264.546 C 284.807 275.070,300.391 292.711,300.391 292.989 C 300.391 293.218,291.927 293.356,278.223 293.350 L 256.055 293.342 252.344 289.036 C 250.303 286.669,248.259 284.280,247.803 283.729 L 246.972 282.726 244.766 284.138 C 214.209 303.685,165.300 298.897,134.274 273.322 C 92.568 238.941,88.730 174.800,126.033 135.568 C 147.835 112.638,183.049 100.983,215.234 106.044 M190.039 143.122 C 160.838 147.931,142.019 170.528,142.019 200.781 C 142.019 235.477,168.289 260.851,202.116 258.827 C 208.071 258.471,219.531 255.761,219.531 254.708 C 219.531 254.540,211.094 244.885,200.781 233.252 C 190.469 221.619,182.031 212.015,182.031 211.910 C 182.031 211.805,192.095 211.731,204.395 211.746 L 226.758 211.774 235.068 221.414 C 239.638 226.716,244.220 232.009,245.250 233.175 L 247.123 235.296 249.381 231.902 C 259.467 216.744,260.594 193.205,252.103 175.035 C 241.461 152.261,215.526 138.926,190.039 143.122 " stroke="none" fill="#4454b4" fill-rule="evenodd"></path><path id="path2" d="M197.173 142.464 C 197.658 142.557,198.362 142.554,198.735 142.456 C 199.108 142.358,198.711 142.282,197.852 142.286 C 196.992 142.290,196.687 142.370,197.173 142.464 M200.488 142.457 C 200.864 142.555,201.479 142.555,201.855 142.457 C 202.231 142.359,201.924 142.278,201.172 142.278 C 200.420 142.278,200.112 142.359,200.488 142.457 M158.182 158.887 L 156.836 160.352 158.301 159.005 C 159.106 158.265,159.766 157.606,159.766 157.541 C 159.766 157.242,159.435 157.523,158.182 158.887 M240.625 158.789 C 241.354 159.541,242.038 160.156,242.145 160.156 C 242.253 160.156,241.744 159.541,241.016 158.789 C 240.287 158.037,239.603 157.422,239.495 157.422 C 239.388 157.422,239.896 158.037,240.625 158.789 M141.497 198.828 C 141.497 199.580,141.577 199.888,141.676 199.512 C 141.774 199.136,141.774 198.521,141.676 198.145 C 141.577 197.769,141.497 198.076,141.497 198.828 M141.505 202.539 C 141.509 203.398,141.589 203.704,141.683 203.218 C 141.776 202.732,141.772 202.029,141.675 201.656 C 141.577 201.282,141.500 201.680,141.505 202.539 M158.008 242.578 C 158.847 243.438,159.621 244.141,159.729 244.141 C 159.836 244.141,159.238 243.438,158.398 242.578 C 157.559 241.719,156.785 241.016,156.677 241.016 C 156.570 241.016,157.169 241.719,158.008 242.578 " stroke="none" fill="#8794ce" fill-rule="evenodd"></path><path id="path3" d="M194.438 105.354 C 194.924 105.448,195.627 105.444,196.001 105.347 C 196.374 105.249,195.977 105.172,195.117 105.177 C 194.258 105.181,193.952 105.261,194.438 105.354 M203.423 105.354 C 203.908 105.448,204.612 105.444,204.985 105.347 C 205.358 105.249,204.961 105.172,204.102 105.177 C 203.242 105.181,202.937 105.261,203.423 105.354 M271.289 133.984 C 272.347 135.059,273.301 135.938,273.408 135.938 C 273.516 135.938,272.738 135.059,271.680 133.984 C 270.622 132.910,269.668 132.031,269.561 132.031 C 269.453 132.031,270.231 132.910,271.289 133.984 M127.521 134.082 L 125.977 135.742 127.637 134.198 C 129.181 132.762,129.476 132.422,129.181 132.422 C 129.117 132.422,128.370 133.169,127.521 134.082 M100.508 197.266 C 100.508 198.447,100.581 198.931,100.670 198.340 C 100.760 197.749,100.760 196.782,100.670 196.191 C 100.581 195.601,100.508 196.084,100.508 197.266 M298.585 200.781 C 298.585 203.252,298.649 204.263,298.726 203.027 C 298.804 201.792,298.804 199.771,298.726 198.535 C 298.649 197.300,298.585 198.311,298.585 200.781 M257.911 200.977 C 257.915 201.836,257.995 202.142,258.089 201.656 C 258.182 201.170,258.179 200.467,258.081 200.093 C 257.983 199.720,257.907 200.117,257.911 200.977 M100.508 203.906 C 100.508 205.088,100.581 205.571,100.670 204.980 C 100.760 204.390,100.760 203.423,100.670 202.832 C 100.581 202.241,100.508 202.725,100.508 203.906 M193.066 212.011 C 199.243 212.072,209.351 212.072,215.527 212.011 C 221.704 211.951,216.650 211.902,204.297 211.902 C 191.943 211.902,186.890 211.951,193.066 212.011 M127.539 267.188 C 128.815 268.477,129.946 269.531,130.054 269.531 C 130.161 269.531,129.205 268.477,127.930 267.188 C 126.654 265.898,125.523 264.844,125.415 264.844 C 125.308 264.844,126.263 265.898,127.539 267.188 M197.183 295.993 C 198.534 296.069,200.644 296.069,201.871 295.991 C 203.098 295.914,201.992 295.851,199.414 295.852 C 196.836 295.853,195.832 295.916,197.183 295.993 " stroke="none" fill="#a4acdc" fill-rule="evenodd"></path><path id="path4" d="M255.804 293.070 C 255.967 293.233,266.110 293.320,278.343 293.265 L 300.586 293.164 278.047 292.969 C 265.650 292.861,255.641 292.907,255.804 293.070 " stroke="none" fill="#6b7cc4" fill-rule="evenodd"></path></g></svg>